<svg version="1.1" id="Layer_1" xmlns="http://www.w3.org/2000/svg" xmlns:xlink="http://www.w3.org/1999/xlink" x="0px" y="0px"
	 width="100%" viewBox="0 0 448 448" enable-background="new 0 0 448 448" xml:space="preserve">
<path  opacity="1.000000" stroke="none"
	d="
M155.541931,0.999999
	C156.403275,2.779382 156.890411,4.544978 157.185837,6.342088
	C157.472855,8.087963 157.177887,10.304670 155.322678,10.444841
	C148.522644,10.958622 148.251694,16.562828 147.613708,20.904583
	C146.788406,26.521166 146.043549,32.574718 150.379425,37.584469
	C151.563446,38.952511 151.662704,40.769150 150.599228,42.236397
	C149.410904,43.875900 147.683395,43.240177 146.029190,42.845436
	C130.377151,39.110409 114.584320,37.830669 98.571808,40.088837
	C96.116379,40.435112 93.594818,40.336197 91.102699,40.391159
	C89.093796,40.435467 87.390816,39.799675 86.983131,37.602249
	C86.525368,35.134987 88.122475,33.977062 90.181351,33.273071
	C97.181427,30.879543 104.495186,30.431635 111.779861,29.993528
	C118.269554,29.603231 124.728836,30.365700 131.137939,31.361534
	C137.517120,32.352718 138.038116,31.636274 138.119385,25.313082
	C138.227264,16.921507 139.926758,8.808647 144.844818,1.314821
	C148.361282,1.000000 151.722580,1.000000 155.541931,0.999999
z"/>
<path fill="#8394d2" opacity="0.5" stroke="none"
	d="
M449.000000,342.539368
	C444.849548,342.071320 440.748962,343.449310 436.594727,343.231018
	C418.140961,342.261169 399.668243,342.256317 381.194458,342.276184
	C375.818237,342.281982 374.482635,340.762634 374.326019,335.408325
	C374.287628,334.097595 374.158539,332.789520 374.034637,330.933044
	C378.663483,328.758698 383.715454,329.516541 388.513855,329.977142
	C408.432526,331.889099 428.362640,332.140259 448.663879,331.085663
	C449.000000,334.692902 449.000000,338.385834 449.000000,342.539368
z"/>
<path fill="#8394d2" opacity="0.5" stroke="none"
	d="
M449.000000,305.536804
	C438.061737,308.726471 427.151855,311.575073 416.172302,314.123657
	C411.291321,315.256622 406.612579,316.885712 401.974152,318.682526
	C399.128540,319.784851 396.496521,319.738159 393.922394,318.001740
	C389.401825,314.952393 389.442780,310.444550 394.174225,307.812195
	C400.516602,304.283600 407.706299,303.479706 414.597443,301.711792
	C425.826935,298.830872 437.443542,297.505768 448.673218,293.157837
	C449.000000,297.024536 449.000000,301.049103 449.000000,305.536804
z"/>
<path  opacity="1.000000" stroke="none"
	d="
M76.669113,390.506531
	C70.912971,386.419006 65.448997,382.483795 62.606400,376.155273
	C58.846218,367.783966 61.198586,357.100616 67.910324,350.881653
	C68.995895,349.875763 70.062309,348.849213 71.102303,347.865601
	C55.716145,326.396484 50.883389,302.752747 53.485451,276.934723
	C55.824989,253.721466 59.001904,230.761520 66.696983,208.639069
	C71.739944,194.141159 80.570564,182.182526 92.097679,172.223984
	C95.132545,169.602081 98.478409,169.805557 101.237328,173.919037
	C95.186539,178.529099 90.494637,184.235474 86.090004,190.229691
	C74.965698,205.368607 70.134483,222.941956 66.283791,240.903732
	C63.137238,255.581039 62.101028,270.514343 60.874374,285.431702
	C59.252190,305.159149 63.970699,323.318237 73.972832,340.232086
	C75.477158,342.775940 77.881020,344.013580 80.746773,343.394531
	C85.935387,342.273743 90.936600,342.449524 96.053055,344.608643
	C89.775146,335.304565 85.898827,324.772125 79.163849,315.884552
	C77.464157,313.641602 76.074150,311.155640 74.635132,308.726135
	C73.552505,306.898285 73.050194,304.776337 74.734680,303.195343
	C76.772964,301.282288 78.745270,302.787811 80.556587,304.024445
	C84.550018,306.750885 86.672096,310.982239 89.280548,314.831421
	C90.035881,315.946014 90.550133,318.175049 92.489044,316.892670
	C94.427017,315.610901 92.576706,314.271179 91.851585,313.129913
	C89.332314,309.164917 86.327484,305.335083 90.223602,300.505066
	C90.913666,299.649597 90.153847,298.587158 89.774132,297.680420
	C84.419456,284.894135 84.357864,271.397064 84.895920,257.937805
	C85.167503,251.144379 89.580727,245.555222 92.419312,239.602798
	C97.648705,228.636948 101.971466,217.308090 106.734177,206.157578
	C107.969482,203.265442 108.761055,200.122009 111.870155,198.482346
	C113.898514,197.412613 115.788231,197.827866 117.486710,199.084488
	C119.057144,200.246384 118.263680,201.676376 117.735031,203.124252
	C111.343513,220.629486 105.706802,238.579010 96.008514,254.523621
	C90.540634,263.513184 91.610779,271.693939 93.472710,280.835541
	C95.445145,290.519684 97.425262,300.032562 103.768097,308.039978
	C105.188484,309.833099 104.888565,310.070679 102.616547,312.630890
	C104.742432,319.873810 109.465462,322.691711 116.893959,321.760223
	C121.156502,321.225708 125.525993,321.834015 129.818802,320.870026
	C132.067917,320.364990 133.175049,319.539093 132.328491,317.167023
	C125.682487,298.544830 133.773026,283.716583 144.905106,269.943481
	C152.940155,260.002136 162.208466,251.412720 175.201859,248.234894
	C193.949875,243.649643 209.908997,248.630325 222.485397,263.083618
	C228.800079,270.340729 234.359894,278.327332 238.087326,287.363434
	C238.970413,289.504211 240.383057,291.933411 237.712875,293.611694
	C235.064514,295.276337 232.846344,293.620361 231.262772,291.550964
	C229.555115,289.319336 228.044937,286.903534 226.706146,284.428802
	C222.326462,276.333038 217.623871,268.274780 210.326019,262.634888
	C199.510071,254.276093 186.994217,252.202606 174.564621,258.228516
	C156.096924,267.181671 144.017670,281.996399 138.982132,302.045410
	C137.502762,307.935486 139.790344,313.595123 142.851135,318.561279
	C145.781326,323.315521 145.180664,325.785522 140.258942,327.737213
	C136.877762,329.078064 133.532272,329.379547 130.015015,329.342499
	C124.053802,329.279694 118.091446,329.325256 112.188171,329.325256
	C111.952354,330.373016 111.646591,330.904297 111.770187,331.302277
	C115.881081,344.538452 118.148125,358.684387 130.812592,367.541748
	C133.043518,369.102020 134.859329,370.699188 137.725235,370.878601
	C139.314499,370.978119 140.925354,371.738220 142.392838,372.468903
	C143.628906,373.084381 144.404633,374.222900 144.049210,375.773163
	C143.761276,377.029083 142.959579,378.031067 141.727509,378.074493
	C138.871536,378.175140 137.539032,379.383850 136.496841,382.200623
	C135.490768,384.919830 132.803879,384.381897 130.559570,382.957642
	C120.880440,376.815460 112.422218,369.437744 106.379295,359.524872
	C104.486214,356.419464 102.312157,353.485352 99.840767,349.845490
	C97.899529,354.524780 94.648453,353.090790 91.659065,352.235840
	C84.424355,350.166748 78.829582,353.004181 74.428917,358.331207
	C67.059860,367.251465 71.781639,381.942810 83.118828,384.271118
	C89.577332,385.597473 95.489540,382.583740 100.052536,377.677765
	C101.895477,375.696350 103.195618,372.008270 106.606400,374.756989
	C109.602150,377.171234 109.375755,380.534882 107.253288,383.732361
	C101.383598,392.574951 86.269073,396.074860 76.669113,390.506531
z"/>
<path  opacity="1.000000" stroke="none"
	d="
M224.452271,425.531860
	C200.758575,429.546295 178.215866,426.366211 156.484421,417.843170
	C149.116043,414.953308 142.163132,410.425537 142.515884,400.623291
	C145.021347,398.859314 146.730209,400.425629 148.311203,401.855072
	C157.015945,409.725281 167.735504,413.367645 178.837494,415.645538
	C201.776230,420.352081 224.428085,417.561584 247.034851,412.485626
	C264.071655,408.660339 281.107635,405.150452 297.383270,398.493103
	C317.348145,390.326782 330.990601,376.072937 338.991241,356.409485
	C343.049042,346.436462 348.286713,336.795349 350.070282,326.032990
	C351.973450,314.548981 350.699860,303.203033 346.998322,292.179321
	C345.826477,288.689392 346.879578,283.882080 349.649811,283.053955
	C353.784576,281.817902 356.076141,283.884460 357.680664,287.680542
	C360.745605,294.931671 360.081299,302.706421 361.312836,310.206421
	C364.634460,330.435333 354.770721,347.417725 347.395538,364.897797
	C344.178833,372.521729 339.509277,379.487518 334.064392,385.893646
	C325.468384,396.007172 314.147705,402.139832 302.268616,406.900726
	C277.439392,416.851715 251.183807,421.356842 224.452271,425.531860
z"/>
<path  opacity="1.000000" stroke="none"
	d="
M277.822266,279.662048
	C274.077515,282.465668 271.769012,281.252869 269.335968,278.000916
	C257.072357,261.609711 259.506165,243.550674 264.300262,225.885178
	C268.487701,210.455185 281.438293,201.268112 296.649048,200.294876
	C310.607391,199.401779 326.808807,209.164413 333.442932,222.023788
	C335.575684,226.157822 336.316589,230.823822 338.685425,234.828690
	C341.924591,234.175186 342.595490,232.078506 342.833649,229.321777
	C343.685425,219.461533 341.490814,210.099655 338.145874,201.000351
	C332.928345,186.806961 331.820374,172.180710 332.748352,157.262222
	C332.884399,155.074966 333.458099,153.254669 335.897369,152.839432
	C338.380280,152.416733 340.551422,153.014130 341.941925,155.324097
	C343.677856,158.207855 343.554810,161.424072 343.303253,164.568726
	C342.405426,175.790695 342.620056,186.979614 346.546661,197.613190
	C350.099792,207.235413 352.399963,216.985565 352.517700,228.145721
	C361.225098,224.627655 369.405426,221.245712 375.504364,214.377899
	C378.119263,211.433365 380.961639,210.158585 384.118530,212.637924
	C387.480652,215.278458 386.393951,218.730804 384.068848,221.479660
	C377.801117,228.889740 369.607727,233.628937 360.828766,237.419907
	C353.362793,240.643890 346.000183,244.052032 339.056671,248.317093
	C335.467346,250.521866 331.347290,248.360428 330.050842,243.641953
	C328.641815,238.513626 327.411591,233.329575 325.814148,228.260986
	C322.326538,217.194946 313.568329,212.343658 303.073090,210.568375
	C293.379608,208.928711 285.096802,212.640823 279.709045,220.822601
	C269.051392,237.007202 267.757782,254.131607 276.032104,271.831787
	C277.129852,274.180084 279.072296,276.356628 277.822266,279.662048
z"/>
<path  opacity="1.000000" stroke="none"
	d="
M195.580078,160.529999
	C195.733002,153.524643 197.298462,150.898071 200.939407,151.215866
	C205.257843,151.592773 207.168686,155.209076 206.130432,161.262329
	C199.781082,198.280823 183.586624,229.493515 152.912537,252.374634
	C141.047806,261.225067 129.915314,271.090393 116.343018,277.434021
	C114.373772,278.354401 112.433990,279.299011 110.185287,279.263855
	C108.231743,279.233368 105.710320,278.613403 105.727768,276.861359
	C105.764275,273.196442 103.333916,271.918884 101.101151,270.105408
	C99.216743,268.574890 100.218529,267.004089 101.773232,266.056854
	C115.333069,257.795013 123.496780,244.699554 131.774261,231.908325
	C141.269104,217.235947 149.835068,202.001694 155.049820,185.120407
	C157.372971,177.599854 157.568069,170.076584 156.261810,162.438477
	C155.803329,159.757629 155.545303,157.102081 158.968857,156.625549
	C162.027832,156.199768 164.270065,157.490845 165.344635,160.845337
	C169.644775,174.269302 166.352539,186.801331 161.015320,199.052338
	C150.331619,223.575806 136.507309,246.136261 118.544678,266.116333
	C142.821976,250.043350 165.817459,232.675186 180.480591,206.660934
	C187.154083,194.821304 191.557861,182.164795 193.658173,168.709274
	C194.067017,166.090012 194.889542,163.535324 195.580078,160.529999
z"/>
<path  opacity="1.000000" stroke="none"
	d="
M247.946274,373.369446
	C253.998672,373.932983 259.585480,373.883881 265.233276,372.914551
	C274.686310,371.292084 280.421448,365.533569 283.253174,356.920715
	C285.680267,349.538605 287.885803,342.048370 289.082672,334.299469
	C289.950897,328.678192 289.303864,323.434723 286.639435,318.433380
	C285.004242,315.363983 284.330383,311.930176 287.798767,310.173462
	C291.212921,308.444122 294.118744,310.059875 295.693604,313.862732
	C298.790283,321.340424 301.028778,328.948944 299.308411,337.104675
	C297.732513,344.575378 296.216919,352.089203 294.048187,359.398132
	C289.609253,374.357758 277.977783,382.211334 259.834808,383.309967
	C227.019287,385.297058 213.879242,355.679047 222.811249,331.571716
	C227.007889,320.245056 236.624069,316.660370 247.401535,314.843353
	C256.570190,313.297546 265.721558,311.649200 274.881470,310.051270
	C275.535736,309.937103 276.194550,309.823639 276.855896,309.779602
	C280.253174,309.553223 282.321747,311.401886 282.967865,314.460846
	C283.612823,317.514130 281.094513,318.496582 278.788208,319.039337
	C269.578705,321.206604 260.383331,323.476868 251.097519,325.266968
	C237.000259,327.984650 228.776672,337.183228 230.555618,350.553497
	C231.922379,360.826019 235.479675,370.489227 247.946274,373.369446
z"/>
<path  opacity="1.000000" stroke="none"
	d="
M38.310997,256.893341
	C37.960876,259.855743 39.319908,262.678528 36.765301,265.059601
	C32.979671,262.405334 33.276615,258.132996 32.946762,254.703568
	C31.369390,238.303833 30.246536,221.867401 33.570297,205.489960
	C35.486786,196.046707 39.324131,187.392685 44.705711,179.567993
	C47.579624,175.389404 49.826248,171.173355 51.355412,166.374191
	C57.184940,148.078690 68.310349,132.919266 80.657532,118.660515
	C89.689919,108.229744 99.348282,98.336060 108.850174,88.319229
	C112.678055,84.283897 116.903404,83.663475 119.836731,86.528229
	C121.843246,88.487831 123.576050,91.595665 120.172386,93.104309
	C113.461205,96.079010 109.060829,101.493019 104.196106,106.433411
	C92.659195,118.149803 80.496101,129.304443 71.208504,143.070267
	C68.602516,146.932785 65.845535,150.671768 63.769852,155.327728
	C65.308769,155.073303 66.609863,154.762604 67.926750,154.664978
	C69.523003,154.546646 70.940163,155.131516 71.757027,156.550018
	C72.791000,158.345551 71.166718,159.140793 70.245323,160.275330
	C57.569813,175.882935 43.983242,190.914154 39.765995,211.600906
	C37.173477,224.317947 38.348728,237.135025 38.120533,249.918976
	C38.081940,252.081055 38.242115,254.246689 38.310997,256.893341
z"/>
<path  opacity="1.000000" stroke="none"
	d="
M372.739166,176.097244
	C373.984497,168.938492 375.025848,162.255310 374.522888,155.351212
	C373.649719,143.364487 367.104767,134.468811 358.975677,126.608925
	C349.181793,117.139404 339.761963,107.254890 328.785553,99.029236
	C324.855927,96.084412 320.836456,93.677017 316.249176,92.042130
	C313.473480,91.052887 310.674225,89.405228 311.683685,85.980186
	C312.655334,82.683434 315.950592,82.430580 318.806396,82.979897
	C325.394440,84.247101 330.661743,88.213585 335.565857,92.420166
	C347.569519,102.716522 358.679749,113.962341 369.344238,125.632240
	C381.843750,139.310089 386.456757,155.273438 383.011841,173.565369
	C381.506256,181.559586 379.881134,189.548401 380.288757,197.790604
	C380.408020,200.202286 380.307892,203.267288 376.891113,203.494278
	C372.992188,203.753326 373.321136,200.416672 372.804657,197.873764
	C371.360931,190.765259 371.789185,183.659470 372.739166,176.097244
z"/>
<path  opacity="1.000000" stroke="none"
	d="
M120.179497,429.612793
	C119.143539,433.752655 119.138298,437.638397 117.566734,441.212616
	C116.365463,443.944672 115.157227,446.494537 111.560173,446.003082
	C109.818443,445.765137 107.861496,444.732086 108.324997,442.909454
	C108.999596,440.256744 108.807953,436.736816 112.605888,435.819580
	C113.207108,435.674347 113.748047,435.279480 114.361290,434.978210
	C108.348450,424.739380 111.154480,412.976105 107.923302,402.318237
	C106.373337,397.205750 110.468231,390.486206 114.138733,389.758087
	C119.112137,388.771545 124.901596,392.447968 126.865784,398.028931
	C128.129791,401.620483 129.137650,405.302185 130.449081,409.555695
	C131.191772,406.823669 131.630661,404.655243 132.382614,402.601410
	C133.109955,400.614838 134.419891,399.128387 136.887634,399.546906
	C139.288712,399.954193 141.256088,401.363586 141.080933,403.748688
	C140.457169,412.242920 143.135391,420.161346 144.814850,428.261810
	C145.246460,430.343567 144.782028,432.266235 143.330490,433.829010
	C141.234528,436.085541 138.236481,435.519257 137.717392,432.505798
	C137.195526,429.476135 135.658310,426.929413 134.159027,424.058746
	C134.159027,426.082001 134.286804,428.115234 134.129547,430.126190
	C133.884354,433.261597 132.258560,435.466339 129.094238,436.136597
	C127.067245,436.565918 124.630051,435.671082 125.192398,433.609863
	C127.536057,425.019592 121.692825,418.293640 120.506142,410.557251
	C120.383339,409.756622 119.990616,408.997406 119.469643,408.238312
	C120.631828,415.192963 120.431015,422.174255 120.179497,429.612793
z"/>
<path  opacity="1.000000" stroke="none"
	d="
M239.367462,206.286652
	C233.317505,217.789093 223.397095,224.871918 213.486725,231.958847
	C211.786850,233.174408 209.821274,233.518219 207.774506,233.334717
	C205.787766,233.156601 203.550171,233.155777 202.956161,230.673752
	C202.339157,228.095657 203.448669,226.213058 205.759521,224.879623
	C221.578094,215.751740 231.911423,202.271805 237.956192,185.115265
	C241.942795,173.800354 245.986511,162.562256 247.359222,150.553253
	C247.696808,147.599899 249.089417,145.162567 252.529297,146.004822
	C255.490189,146.729782 257.627106,148.838226 257.032196,152.233292
	C253.749557,170.966064 249.459579,189.386688 239.367462,206.286652
z"/>
<path  opacity="1.000000" stroke="none"
	d="
M304.924866,49.855297
	C316.276886,53.309135 326.512482,57.819035 334.063354,66.995720
	C336.969360,70.527420 339.040436,74.454788 340.828217,78.589668
	C341.589294,80.349846 341.786194,82.084610 340.450104,83.695236
	C337.715637,84.364143 337.054199,82.066429 335.884094,80.608505
	C331.517426,75.167603 327.672150,69.217514 322.015778,64.981987
	C314.067200,59.030033 304.766296,56.315586 295.079926,55.376793
	C273.487488,53.284073 251.894684,54.292812 230.332809,56.215107
	C228.054016,56.418266 225.818527,56.295589 225.001144,53.694920
	C224.105072,50.843922 225.911514,49.095028 228.246735,48.361477
	C231.716827,47.271420 235.328003,46.105068 238.911819,45.990108
	C258.223053,45.370678 277.526642,45.634789 296.737335,48.019413
	C299.365295,48.345623 301.930969,49.173588 304.924866,49.855297
z"/>
<path  opacity="1.000000" stroke="none"
	d="
M22.663326,312.243408
	C19.022446,309.037415 17.948868,304.763306 16.293745,300.801422
	C7.031834,278.631073 4.677507,255.656921 7.401131,231.854523
	C9.161733,216.468231 13.254236,201.877075 19.381083,187.761963
	C20.376999,185.467575 21.600580,183.309677 23.403772,181.492950
	C24.493448,180.395096 25.506586,179.054581 27.181414,179.847931
	C28.984924,180.702240 29.135307,182.411896 28.542917,184.150391
	C26.880976,189.027710 25.337370,193.953384 23.461716,198.748352
	C18.012346,212.679184 15.500740,227.243973 14.400826,242.033646
	C12.763185,264.053741 15.163822,285.558044 23.755957,306.151550
	C24.543388,308.038849 25.571795,310.581177 22.663326,312.243408
z"/>
<path fill="#8394d2" opacity="0.5" stroke="none"
	d="
M436.251343,263.205994
	C427.093719,272.550140 415.162811,277.727631 406.059967,286.510162
	C399.836517,292.514587 392.011047,296.533051 386.257996,303.098877
	C383.833588,305.865814 380.743042,306.344482 378.038330,303.386780
	C375.283051,300.373810 376.565765,297.427490 379.082245,295.089569
	C391.971405,283.114960 404.705292,270.940948 419.690216,261.495178
	C422.537048,259.700684 424.966034,257.523651 426.675812,254.537628
	C428.061981,252.116684 430.531738,250.866302 433.010040,249.950226
	C435.647949,248.975128 437.849670,250.156448 439.657623,252.164169
	C441.376984,254.073547 441.243958,256.127625 439.997284,258.126953
	C438.950226,259.806030 437.670715,261.340179 436.251343,263.205994
z"/>
<path  opacity="1.000000" stroke="none"
	d="
M73.395912,100.236778
	C73.165428,101.331764 73.051231,102.557175 72.551094,102.742813
	C60.179844,107.334724 53.758625,118.328972 46.146606,127.794022
	C37.940998,137.997177 29.652327,148.334885 25.739113,161.251434
	C24.348255,165.842316 22.788647,170.381927 21.318863,174.949066
	C20.311220,178.080185 19.498245,181.326126 16.217678,183.300354
	C13.721325,180.770447 14.801919,177.942764 15.130990,175.258682
	C17.336889,157.266220 24.993668,141.634094 35.658329,127.216270
	C41.704910,119.041740 48.162212,111.223068 54.722401,103.471535
	C58.323135,99.216896 62.969872,97.411583 68.372818,97.339867
	C70.377098,97.313255 72.433891,97.570648 73.395912,100.236778
z"/>
<path  opacity="1.000000" stroke="none"
	d="
M292.682465,106.966049
	C293.120331,102.161980 294.192322,97.968765 296.901550,94.464096
	C298.335510,92.609093 300.253845,91.011330 302.912201,92.648972
	C305.530548,94.261925 305.817047,96.525452 304.575470,99.122688
	C299.326935,110.102501 299.983643,121.720612 300.677948,133.395386
	C301.906799,154.058304 297.975586,173.423950 285.672119,190.556778
	C285.096283,191.358658 284.419952,192.132935 283.647888,192.738312
	C282.626404,193.539291 281.480438,194.616714 280.078217,193.762634
	C278.370331,192.722351 279.014954,191.137131 279.608826,189.761627
	C281.848328,184.574417 283.988403,179.335159 286.463104,174.260452
	C292.261932,162.369232 293.056610,149.707108 292.999146,136.777512
	C292.955688,126.985260 290.695923,117.214958 292.682465,106.966049
z"/>
<path  opacity="1.000000" stroke="none"
	d="
M261.663879,158.624847
	C261.665710,152.351624 261.690277,146.548660 263.145966,140.847000
	C263.898132,137.900894 264.992310,135.158844 268.574799,135.590622
	C272.248688,136.033447 272.475342,139.186813 272.528015,142.088043
	C272.827179,158.552353 270.743378,174.520096 262.817688,189.314575
	C261.176056,192.378922 260.123138,195.758377 258.484985,198.824890
	C257.025391,201.557144 254.773636,202.990952 251.447510,201.649704
	C247.947662,200.238419 249.214569,197.690002 249.873474,195.371750
	C251.327774,190.254990 253.372955,185.366470 255.699112,180.577423
	C258.995422,173.791046 260.513123,166.482162 261.663879,158.624847
z"/>
<path  opacity="1.000000" stroke="none"
	d="
M136.829132,132.777878
	C131.039810,143.575684 126.736084,154.775696 119.556427,164.524002
	C116.969582,162.583405 118.039833,160.567749 118.669815,158.515076
	C123.421280,143.033432 130.604828,128.632065 138.138779,114.378311
	C140.312271,110.266197 142.228622,106.017326 144.432922,101.922699
	C145.431473,100.067848 146.659393,97.713692 149.367691,99.040825
	C151.888580,100.276131 151.175980,102.540398 150.487885,104.718513
	C147.356369,114.630997 142.128510,123.514297 136.829132,132.777878
z"/>
<path fill="#ec2d01" opacity="0.5" stroke="none"
	d="
M163.066895,336.943542
	C167.820206,327.643585 172.561798,318.703125 177.419357,309.826080
	C178.483322,307.881744 180.037460,306.079590 182.637360,307.348206
	C185.003860,308.502930 186.074692,310.680115 185.366898,313.189056
	C182.499115,323.354614 178.214111,332.860870 171.322800,340.984711
	C168.249008,344.608246 165.007904,343.107300 163.066895,336.943542
z"/>
<path fill="#ec2d01" opacity="0.5" stroke="none"
	d="
M318.334839,274.138550
	C326.247253,274.665588 331.339539,279.575684 336.109833,284.560822
	C338.495117,287.053558 337.906860,290.668701 335.243042,293.066589
	C332.513489,295.523651 330.574646,293.357208 328.539246,291.412506
	C325.643341,288.645630 321.943542,287.003723 318.558472,284.913239
	C313.682129,281.901825 313.580444,277.863617 318.334839,274.138550
z"/>
<path fill="#ec2d01" opacity="0.5" stroke="none"
	d="
M192.678940,329.850739
	C192.506790,321.907410 196.069885,315.738129 199.800201,309.655762
	C200.883652,307.889160 202.483597,306.522339 204.755219,307.246460
	C207.298355,308.057159 208.000412,310.430145 207.356964,312.504974
	C205.112167,319.743347 202.580490,326.897705 199.957748,334.010223
	C199.356705,335.640167 197.616959,336.439911 195.805038,335.894592
	C193.050766,335.065643 192.769440,332.697784 192.678940,329.850739
z"/>
<path fill="#ec2d01" opacity="0.5" stroke="none"
	d="
M303.619812,298.737061
	C300.410095,299.359009 298.666168,297.956757 298.162170,295.385986
	C297.338898,291.186584 296.656799,286.937622 296.291656,282.677277
	C295.999939,279.274109 297.909180,276.847992 301.235596,276.259521
	C304.630981,275.658875 305.820526,278.367920 306.473846,281.005341
	C307.264465,284.197174 307.995361,287.452698 308.234589,290.718567
	C308.478790,294.053192 308.162811,297.470337 303.619812,298.737061
z"/>
<path  opacity="1.000000" stroke="none"
	d="
M31.500462,307.337341
	C27.522200,300.421539 26.470314,293.649811 30.004049,286.598114
	C31.168718,284.273987 32.700489,281.857330 35.661930,283.037384
	C38.647724,284.227112 37.461918,287.001068 36.665951,289.076080
	C34.515827,294.681244 34.907616,299.983246 37.389057,305.430511
	C38.683594,308.272278 41.201382,311.070892 39.377171,315.044739
	C34.590847,314.828308 33.806446,310.506836 31.500462,307.337341
z"/>
</svg>