<svg version="1.1" id="Layer_1" xmlns="http://www.w3.org/2000/svg" xmlns:xlink="http://www.w3.org/1999/xlink" x="0px" y="0px"
	 width="100%" viewBox="0 0 800 1024" enable-background="new 0 0 800 1024" xml:space="preserve">
<path fill="#000000" opacity="1.000000" stroke="none"
	d="
M356.974335,410.970886
	C362.597961,398.213867 371.458466,394.084686 385.618652,396.277740
	C392.833405,397.395111 398.803070,400.342957 404.428406,404.977631
	C408.419312,400.864960 410.659698,396.568481 412.385437,391.342834
	C415.624390,381.535217 418.597260,371.717285 420.854187,361.641937
	C421.458771,358.942841 421.134155,357.522430 418.797607,355.895721
	C404.839203,346.177948 392.760620,334.810394 385.220856,319.072144
	C380.225922,308.645966 378.047913,297.640778 376.880524,286.392578
	C376.089569,278.771576 373.465057,271.423401 373.741028,263.682434
	C373.826385,261.286987 373.129211,258.051727 376.819946,257.979187
	C380.385895,257.909119 379.860931,261.059875 380.286591,263.496033
	C383.221680,280.295288 383.337006,297.613739 390.165283,313.696442
	C398.046143,332.258392 412.133942,344.760864 429.198975,354.298035
	C439.378082,359.986908 450.042297,364.316498 461.871399,366.011047
	C477.057129,368.186462 491.143188,366.152130 505.068970,359.709229
	C520.977051,352.349274 533.627991,340.917297 546.104309,329.141571
	C551.790771,323.774475 557.110718,318.020721 562.736023,312.586304
	C565.070435,310.331116 564.656921,305.252838 570.251953,306.124298
	C568.428711,303.695984 566.472656,301.542786 569.524109,299.486420
	C572.278015,297.630615 574.428101,299.252411 575.870605,301.424194
	C580.345581,308.161377 586.951965,310.009491 594.458496,309.936462
	C599.434937,309.888092 604.620361,310.728943 609.316956,308.925110
	C625.165527,302.838135 633.144775,273.114655 622.532593,259.846619
	C615.440063,250.979126 601.772339,245.701340 590.623718,256.087799
	C588.963623,257.634338 587.175232,261.022125 584.608948,258.179565
	C581.936829,255.219757 584.569519,252.775009 586.867493,250.656540
	C603.805481,235.041458 628.106323,248.902649 632.810974,264.941833
	C634.851074,271.897369 635.596741,279.209991 632.985535,286.079529
	C630.589233,292.383362 631.963684,297.920746 634.785706,303.292267
	C643.422424,319.732056 653.886292,334.866058 667.296997,347.865875
	C672.638611,353.043793 678.734253,357.023682 685.398926,360.140259
	C693.850159,364.092346 702.332092,368.006287 710.145081,373.115143
	C718.986755,378.896576 728.635803,382.894135 738.366516,386.779327
	C739.758240,387.334961 741.136047,387.928467 742.501770,388.545471
	C744.481018,389.439667 746.151062,390.753326 745.118042,393.132904
	C744.132996,395.401855 742.144775,395.463562 740.035339,394.522675
	C731.686218,390.798645 722.754700,388.369080 714.918701,383.517334
	C703.576294,376.494507 691.748657,370.420105 679.734436,364.640533
	C664.183044,357.159332 654.041870,343.827881 643.860107,330.597626
	C637.057068,321.757751 631.766724,311.991516 626.356445,301.642212
	C621.396606,309.411499 615.640747,315.404449 605.795532,316.680969
	C612.556702,330.584778 616.659973,345.531097 628.146851,356.453491
	C643.100525,370.672333 657.495422,385.571899 675.351562,396.331329
	C688.044678,403.979736 700.787537,411.599182 712.344116,420.876709
	C721.465515,428.199188 730.998657,434.819031 740.965332,440.872620
	C743.775330,442.579315 746.692810,445.190094 750.026306,442.531067
	C753.080017,440.095276 753.751831,436.285004 753.480469,432.580048
	C753.327393,430.490479 752.748596,428.078979 751.500977,426.486786
	C747.208801,421.008820 747.055603,414.421936 746.103149,408.090363
	C745.085938,401.328400 748.061462,396.520996 754.270203,393.859100
	C757.172302,392.614868 760.088684,391.403900 762.992920,390.164490
	C766.843018,388.521515 771.299866,376.756836 769.306580,373.242523
	C768.858215,372.452057 767.916321,371.719574 767.045349,371.429474
	C763.502991,370.249451 760.546326,368.100586 757.291931,365.720764
	C753.957825,371.184875 750.081360,368.315430 746.203003,366.494263
	C731.838867,359.749268 719.343628,349.779236 705.215759,342.665497
	C694.355103,337.196930 683.817993,331.158630 673.105530,325.436768
	C658.997192,317.901093 648.353638,307.070526 640.149597,293.563141
	C638.854980,291.431580 637.294250,289.461731 635.995972,287.332153
	C635.167114,285.972595 634.931091,284.417175 636.376404,283.265747
	C637.694519,282.215576 639.215881,282.278961 640.535339,283.290680
	C642.550781,284.836060 643.950256,286.924042 645.205078,289.097992
	C652.772888,302.208496 662.858215,312.451294 676.409546,319.778442
	C697.909790,331.403564 719.682739,342.594604 740.248230,355.895294
	C742.889954,357.603821 745.730286,359.010620 748.510193,360.498230
	C750.283936,361.447388 752.115784,362.287872 754.734924,360.761597
	C753.267212,355.505371 756.113403,352.010406 760.349060,348.949615
	C762.521729,347.379578 763.484009,344.576660 763.937683,341.951904
	C765.701599,331.748077 766.209167,321.711060 758.680054,313.175537
	C757.378845,311.700439 756.344910,310.033722 758.258911,308.423889
	C760.053406,306.914612 761.955627,307.385437 763.666260,308.860565
	C768.112244,312.694550 769.843140,318.085571 770.763672,323.415344
	C772.096985,331.134857 771.971558,339.010315 769.401733,346.612488
	C768.255798,350.002686 766.348755,352.947418 763.528320,355.138031
	C760.000061,357.878448 761.289429,360.171936 763.965088,362.397614
	C764.718323,363.024200 765.636108,363.559418 766.567810,363.848602
	C774.848572,366.418579 777.050415,370.855743 775.666138,381.434662
	C774.260071,392.180267 767.439087,396.044495 758.763916,399.255310
	C752.573242,401.546600 752.119751,403.297913 752.943420,409.882202
	C753.595093,415.091583 755.390686,419.648651 757.790833,424.356049
	C762.698181,433.980743 760.599609,450.612823 744.216858,451.146454
	C740.200806,451.277252 737.855347,453.645355 735.938843,456.736145
	C728.941467,468.020996 718.349915,471.822571 705.678833,471.277039
	C704.354309,471.220062 702.838379,471.358032 701.748047,470.775391
	C692.135681,465.638458 686.888977,473.607483 680.416382,477.790863
	C678.524536,479.013611 679.463013,480.837891 680.162964,482.291229
	C681.821777,485.735443 683.738586,489.055176 685.404114,492.496338
	C693.983032,510.220917 700.638428,528.616577 704.532349,547.957825
	C704.925476,549.910522 705.505615,551.931519 705.352905,553.869934
	C704.663391,562.620605 709.022522,568.936279 714.718567,574.838989
	C718.974915,579.249756 719.177979,583.870911 716.244995,589.236755
	C710.758545,599.273804 701.059204,604.330139 691.930054,610.072571
	C690.952148,610.687683 689.803833,611.025330 688.761719,611.546143
	C685.119568,613.366394 682.124573,615.031921 681.074036,620.023193
	C679.909302,625.557312 676.972107,630.946045 673.872375,635.801575
	C665.369934,649.120361 657.226501,662.669067 647.632263,675.300903
	C640.393494,684.831482 634.316711,695.235718 627.322510,704.963318
	C619.929382,715.245728 611.882935,724.948853 601.131653,732.125427
	C596.728394,735.064636 593.428284,739.346680 590.069397,743.541382
	C581.371399,754.403870 570.293823,761.193420 555.919067,761.170227
	C548.973572,761.159058 542.142029,761.027039 535.126282,759.692810
	C520.384094,756.889160 508.058136,738.710205 507.757263,725.264282
	C507.700653,722.734741 507.912109,719.918335 505.131226,718.439636
	C502.651886,719.367310 503.302826,721.322571 503.451691,722.794312
	C504.968628,737.787720 503.482208,752.744080 502.077667,767.588562
	C500.703644,782.110352 497.899078,796.525085 495.154572,810.878174
	C493.567047,819.180176 491.328766,827.404175 488.245911,835.333557
	C487.706482,836.721069 487.132843,838.130615 486.329010,839.370422
	C485.474243,840.688904 484.175842,841.565369 482.493835,840.857727
	C481.093292,840.268555 480.559235,839.004883 480.753906,837.576355
	C480.954132,836.107056 481.251923,834.622375 481.738922,833.225220
	C490.951996,806.793396 494.747040,779.378723 496.714661,751.614563
	C497.090118,746.316162 497.804169,741.052246 497.709717,735.714478
	C497.577332,728.236023 497.755371,720.790344 496.161560,713.362610
	C495.402924,709.827209 494.017120,705.910461 496.704926,702.266113
	C497.944641,700.585205 496.032227,699.578552 495.105804,698.557922
	C491.513458,694.600403 488.240295,690.438354 485.513824,685.810852
	C481.059204,678.250305 480.099731,669.532104 477.232086,661.448853
	C476.197083,658.531433 478.004425,655.769653 480.849365,655.322327
	C484.494507,654.749207 484.070465,657.999268 484.394867,660.491760
	C486.593414,677.383423 495.530060,688.796021 511.855316,694.341736
	C517.237549,696.170044 522.361572,698.271423 528.175903,695.941467
	C535.074524,693.176880 538.965027,688.726074 540.204651,680.987976
	C541.975037,669.937073 542.284912,659.209534 538.799194,648.479126
	C537.785767,645.359253 536.020691,643.716675 532.816040,642.537964
	C526.641296,640.266968 520.648987,638.062378 514.004456,640.218018
	C512.905029,640.574646 511.268707,640.553162 510.774231,641.298950
	C506.067841,648.397705 497.915070,648.268188 491.085175,650.608154
	C481.219604,653.988098 472.865204,651.319763 467.130554,642.590271
	C451.316864,618.518127 428.435150,602.117188 406.182983,584.897949
	C397.179779,577.931091 386.855347,573.258728 377.587738,566.808533
	C372.203339,563.060974 372.182556,561.611206 376.719879,557.261719
	C379.629395,554.472717 380.521332,549.930969 383.786316,547.156128
	C384.027283,546.951416 383.995087,546.146423 383.807190,545.756897
	C379.471466,536.767517 382.303741,528.151184 385.465546,519.723633
	C387.073456,515.437805 386.472229,512.998474 382.561554,510.209473
	C373.199341,503.532410 364.262604,496.134491 357.324432,486.893951
	C349.486481,476.455170 344.778198,464.386597 344.090515,451.374542
	C343.454590,439.341583 341.725800,427.044983 346.581055,415.299438
	C347.350677,413.437469 348.130432,411.623871 349.433228,410.068634
	C352.015961,406.985474 354.485840,406.207275 356.648895,410.947998
	C353.168488,416.334869 351.223083,421.611511 350.216980,427.513702
	C348.241425,439.103088 349.966858,450.461761 352.556763,461.513000
	C355.616333,474.568390 362.519135,485.754822 373.659760,493.985992
	C367.982452,481.084412 356.833862,471.350159 353.946564,456.927979
	C352.765442,451.028076 351.344208,445.344757 351.941772,439.279327
	C352.885010,429.705688 353.408630,420.072571 356.974335,410.970886
M674.239014,485.130829
	C671.413452,475.497681 665.152893,467.799774 659.615845,459.754730
	C655.853821,454.288666 650.507568,450.645508 643.789734,449.218658
	C630.742615,446.447449 618.793640,451.007599 606.711243,454.637451
	C605.727661,454.932953 604.900269,456.052460 604.202881,456.947021
	C599.492798,462.988831 594.836548,469.072723 590.164185,475.143951
	C581.631714,486.231049 573.077209,497.289856 561.713196,505.754242
	C555.169739,510.628082 548.519653,515.381714 542.225891,520.563904
	C519.557556,539.228760 493.220917,546.380493 464.328644,546.471313
	C453.262238,546.506042 442.486786,545.157166 431.687561,543.091919
	C426.900299,542.176392 423.118744,546.750061 424.019318,551.597534
	C425.029327,557.034180 425.420990,562.503418 424.257050,567.976196
	C423.519287,571.445190 422.294952,574.681641 419.628510,577.197876
	C418.124237,578.617371 416.545807,580.150208 414.458282,578.431335
	C412.260468,576.621521 413.045685,574.788635 414.648102,572.843872
	C418.263794,568.455566 418.814270,563.184570 418.444702,557.762390
	C418.256226,554.996338 417.128723,553.177246 413.883118,552.987244
	C407.263214,552.599854 400.663147,551.883667 394.048584,551.386169
	C392.912048,551.300659 391.716553,551.512817 390.596191,551.784912
	C386.460327,552.789551 384.886047,556.038818 383.852753,559.709961
	C382.794006,563.471497 386.233398,563.913147 388.142334,565.473755
	C392.834106,569.309509 398.828430,570.947144 403.654419,574.492920
	C416.923340,584.241821 429.823822,594.463684 442.270508,605.253845
	C449.826782,611.804504 457.125549,618.589111 463.362457,626.456665
	C464.416931,627.786804 465.012115,629.816101 467.300354,629.985962
	C470.451691,624.055969 473.543182,618.136780 479.885406,614.893372
	C488.308441,610.585876 496.913361,610.508972 505.457031,614.123596
	C512.405884,617.063293 513.248169,623.416504 513.453430,630.001953
	C513.503418,631.604797 514.027649,633.576355 516.421692,633.075928
	C522.980469,631.704895 528.761719,634.270203 534.844055,636.060852
	C540.531372,637.735291 543.797791,641.240173 545.120300,646.489868
	C546.695190,652.741211 549.089111,659.089539 548.021545,665.595642
	C546.530151,674.684509 547.977173,681.648010 558.065674,684.250671
	C558.220215,684.290527 558.358032,684.409302 558.494202,684.504700
	C560.031311,685.580872 561.728943,686.690613 560.521912,688.908081
	C559.332825,691.092407 557.357117,691.175476 555.336731,690.197815
	C552.359680,688.757141 549.441467,687.194763 546.469177,685.669312
	C541.453979,700.012390 527.257141,709.556458 504.045074,698.497009
	C499.460236,702.898193 501.253265,706.269287 505.304596,710.017639
	C511.247559,715.516052 514.841370,722.069336 515.566711,730.711487
	C516.204895,738.314514 521.081543,745.202759 527.442993,749.071777
	C539.688599,756.519470 553.472961,757.173401 566.865601,752.585449
	C574.667664,749.912659 581.401123,745.040100 586.344116,737.674194
	C591.481506,730.018616 599.919434,725.533752 606.686462,719.429688
	C618.279968,708.971863 626.076904,695.379028 634.820496,682.648621
	C645.553772,667.021423 656.783752,651.706360 666.326477,635.290039
	C669.392090,630.016357 672.364746,624.629761 674.459656,617.436584
	C670.926086,618.976379 668.677734,619.957520 666.428284,620.936096
	C658.654907,624.317993 650.888245,627.715393 643.103027,631.069824
	C640.836304,632.046448 638.356079,632.699463 637.148132,629.760986
	C636.018188,627.012390 638.247192,625.675171 640.316345,625.039978
	C655.076233,620.509277 667.706726,611.160828 682.628906,606.811584
	C691.255676,604.297180 698.633728,598.626648 705.489563,592.762817
	C712.024719,587.173218 712.193909,580.703247 706.364441,576.222717
	C699.489624,584.729675 690.174622,590.247192 680.965759,596.435730
	C684.066467,599.260986 683.900391,601.703125 680.605225,603.871460
	C674.382080,607.966492 672.686707,607.888184 669.395142,603.181335
	C661.149475,607.854370 652.835083,612.411804 644.102905,616.140259
	C641.817444,617.116028 639.078979,618.514771 637.662354,615.226868
	C636.353455,612.188965 639.043152,611.425537 641.201172,610.389832
	C660.289917,601.229492 678.899780,591.255920 695.670349,578.162292
	C698.273010,576.130249 700.625183,573.856018 700.519287,570.453430
	C700.065918,555.892395 697.339722,541.624573 692.667480,527.921204
	C687.737488,513.461853 682.468811,499.039062 674.239014,485.130829
M580.786255,448.229431
	C581.643494,446.999603 582.516357,445.780243 583.354492,444.537506
	C584.699951,442.542419 586.583435,442.012939 588.522339,443.256409
	C590.472290,444.506989 589.976746,446.581696 589.014526,448.176697
	C587.644531,450.447662 585.964478,452.539307 584.337219,454.645996
	C576.696960,464.537109 568.207031,473.703156 559.765564,482.889130
	C551.670044,491.698608 543.748169,500.854004 533.013550,506.664368
	C503.663391,522.550781 472.346954,531.103088 438.879486,531.178955
	C435.222992,531.187256 433.343445,532.413757 432.766541,536.112122
	C433.593048,536.370972 434.194458,536.627686 434.821960,536.745972
	C466.982025,542.804749 498.091919,541.683105 526.521484,523.004456
	C541.275879,513.310547 555.778992,503.222046 568.509583,490.915680
	C577.757446,481.975922 584.703796,471.069916 592.719849,461.076782
	C596.985779,455.758820 601.165283,450.354767 603.886169,443.996124
	C604.771057,441.928070 606.381958,440.286255 608.606812,439.848328
	C613.819641,438.822327 619.066101,437.924194 624.332947,437.233612
	C626.836121,436.905396 630.011353,437.118652 630.917542,439.665039
	C632.004761,442.720520 633.881165,442.194794 635.995056,442.126190
	C650.431458,441.657654 660.726440,448.296692 667.995728,460.462341
	C670.356812,464.413757 673.330566,467.999054 676.203979,472.002472
	C680.281860,469.387115 684.205139,467.234344 687.701477,464.529602
	C691.435242,461.641235 695.094238,461.349182 699.372314,462.976807
	C711.042664,467.416840 722.419556,464.027374 729.824097,454.037323
	C731.875610,451.269440 733.476440,448.170837 736.572266,445.909393
	C731.593872,442.635956 727.077515,439.832245 722.736145,436.779633
	C711.305115,428.742004 700.791565,419.374908 688.763123,412.235321
	C669.659729,400.896210 652.171204,387.693695 635.487854,372.912659
	C618.538818,357.896301 607.287170,339.974091 599.878601,319.132690
	C598.951782,316.525330 597.538879,316.167175 595.469666,316.360260
	C587.344299,317.118591 580.077881,314.868835 573.708252,310.132812
	C561.867065,324.024689 548.187439,335.670654 535.346985,348.202789
	C538.652893,350.801270 538.971069,353.850769 538.609558,357.629059
	C537.654663,367.607025 537.783752,377.415955 542.416016,386.885406
	C547.185486,396.635315 553.248962,405.622925 558.195618,415.187439
	C562.075500,422.689270 568.346497,425.604187 575.306458,427.228271
	C583.682190,429.182770 592.402100,429.656586 600.969482,430.798126
	C604.259888,431.236542 607.567627,431.616089 610.814941,432.279449
	C612.599854,432.644135 613.648499,434.015686 613.467651,435.981873
	C613.260315,438.236176 611.629395,438.578369 609.842224,438.393799
	C607.371338,438.138611 604.927185,437.544067 602.454041,437.402771
	C585.507874,436.434937 568.920349,432.469971 551.950928,431.559448
	C541.727112,431.010864 531.585510,431.519043 523.145874,437.393127
	C510.459473,446.223053 498.561005,456.179504 486.242004,465.544464
	C470.738892,477.329834 457.653839,492.037567 441.229736,502.700531
	C440.233704,503.347168 438.892120,504.103821 439.633636,505.378571
	C441.671265,508.881470 440.181427,512.354309 439.448761,516.453125
	C442.234314,515.934326 444.522461,515.666992 446.721130,515.070007
	C454.426392,512.977905 462.142212,510.908142 469.778625,508.582275
	C487.812256,503.089661 505.578491,496.826904 521.529968,486.542603
	C535.047424,477.827576 546.445251,466.688568 556.908508,454.474915
	C562.088684,448.428131 568.171265,443.151245 573.888428,437.569977
	C575.376770,436.117065 577.144897,434.839752 579.072021,436.793182
	C580.844116,438.589386 580.092407,440.466705 578.657410,442.129395
	C578.116394,442.756226 577.457520,443.282227 576.845215,443.846436
	C568.163513,451.847015 560.300232,460.619568 552.259216,469.250488
	C542.145447,480.106201 530.734009,489.672852 517.569397,496.739502
	C501.519989,505.354675 484.393188,511.345581 466.902985,516.287720
	C457.497253,518.945435 448.025757,521.370178 438.583923,523.900024
	C442.103821,524.528992 445.563141,524.679810 449.005829,524.504150
	C469.141327,523.476379 488.421265,518.483582 507.183014,511.421478
	C519.056396,506.952240 530.972046,502.047913 540.381165,493.383148
	C555.090454,479.837494 568.122803,464.655029 580.786255,448.229431
M540.555481,425.656219
	C545.414795,425.476868 550.335815,426.079224 555.315918,425.199921
	C553.038025,417.687469 548.217468,412.392456 545.030151,406.219238
	C539.663818,395.825623 532.675720,386.163696 532.159912,373.633209
	C531.853577,366.191071 531.548706,358.810089 532.501221,351.066040
	C531.520447,351.319061 530.807190,351.321411 530.323059,351.655701
	C524.576233,355.623413 519.351807,360.357849 512.960999,363.381348
	C511.793640,363.933624 511.659882,365.132965 511.297058,366.271881
	C509.770294,371.064423 509.594757,376.002014 509.037781,380.949554
	C507.693268,392.892090 507.682098,404.488922 513.178406,415.560333
	C514.376587,417.973907 514.473999,420.694061 514.387024,423.388794
	C514.324707,425.319122 514.142822,427.311859 511.852570,427.655701
	C509.519135,428.006073 508.505768,426.083130 508.331848,424.257721
	C507.878479,419.498352 505.545593,415.397980 504.150757,410.975342
	C502.546600,405.889130 501.312714,400.513245 502.037933,395.317932
	C503.298737,386.285431 501.837616,377.283051 503.236481,368.043243
	C476.856323,377.534210 452.111847,374.123322 427.343262,360.916138
	C426.624329,373.499176 419.835571,383.686157 420.465332,395.562805
	C420.532745,396.834229 419.944214,397.818420 419.006653,398.597198
	C412.179993,404.267914 407.914246,411.817322 404.409424,419.687805
	C401.639496,425.908020 400.624786,432.391479 402.000031,439.571289
	C405.342010,457.019196 413.745392,472.799530 417.731598,489.989197
	C418.473358,493.187775 420.351898,494.976837 424.031982,495.148926
	C426.592316,495.268646 429.440552,495.626617 431.644592,497.257324
	C434.014435,499.010712 436.005280,498.180420 438.041382,496.845398
	C445.296906,492.088043 452.163940,486.808014 458.424591,480.811249
	C468.051422,471.590240 478.307495,463.125610 488.852203,455.002441
	C497.555298,448.297974 506.620209,442.038574 515.053589,435.016052
	C522.291870,428.988708 530.187866,425.585052 540.555481,425.656219
M363.352966,447.241272
	C365.490143,469.791504 375.989380,487.759308 393.379395,501.926025
	C394.873108,503.142822 396.731750,503.582062 398.536926,502.724762
	C403.152100,500.533112 407.706818,498.214233 412.514893,495.832794
	C410.342682,488.601257 408.964813,481.292145 405.998260,474.697662
	C399.573486,460.415741 396.837830,445.200378 393.282684,430.165161
	C392.826050,428.234070 392.937927,426.575958 394.364258,425.081757
	C397.585693,421.706970 397.143707,416.610931 400.028931,413.011139
	C401.086639,411.691437 399.542175,410.608276 398.700531,409.632538
	C393.024719,403.052246 385.174927,401.833862 377.370239,402.304199
	C367.658966,402.889404 364.305481,407.730042 363.201630,417.479889
	C362.105957,427.157440 362.926056,436.709930 363.352966,447.241272
M417.448029,502.156036
	C409.292206,504.777649 401.565002,507.154114 395.863434,514.994141
	C390.615387,522.210449 389.118561,529.788208 388.415314,537.948303
	C388.129364,541.266602 389.488220,544.439087 393.588928,544.459229
	C399.038391,544.486084 404.532227,544.191772 409.773804,545.843445
	C415.341553,547.597961 418.178650,544.716919 421.199463,540.659668
	C427.500031,532.197571 430.650879,522.595032 432.966034,512.509705
	C433.559296,509.925140 433.203735,508.388947 431.555237,506.296783
	C427.946320,501.716431 423.475677,500.984222 417.448029,502.156036
M478.558258,624.069519
	C477.394104,625.887817 475.955200,627.589905 475.126648,629.550110
	C473.688171,632.953186 470.919281,636.614136 474.110901,640.198425
	C477.481049,643.983215 481.342743,646.868103 487.202728,644.844055
	C492.947784,642.859680 498.624146,641.547791 503.716980,637.435486
	C507.976562,633.996033 506.693878,630.477356 506.567780,626.824524
	C506.447845,623.350891 504.761963,620.536194 500.983551,619.421021
	C492.938904,617.046570 485.558807,617.881897 478.558258,624.069519
z"/>
<path fill="#000000" opacity="1.000000" stroke="none"
	d="
M328.037018,486.381409
	C328.126801,493.132996 328.126801,499.421600 328.126801,506.012299
	C337.023560,505.534424 343.760437,510.058533 351.173218,512.265747
	C355.180695,513.458984 357.058563,516.959473 358.572174,520.557190
	C362.102142,528.947449 363.751404,537.661987 363.334869,546.801514
	C362.809967,558.318604 356.619141,565.000549 345.155945,564.919617
	C338.701782,564.874023 333.810303,565.293518 330.405121,572.168823
	C328.000153,577.024658 323.500214,581.079407 318.534393,584.065186
	C315.783386,585.719299 312.998779,586.372803 311.302429,583.029724
	C309.635925,579.745422 312.357056,578.872498 314.809448,577.851562
	C324.301178,573.899902 330.888275,561.470642 329.552063,549.624695
	C328.449799,539.853027 326.728088,530.225403 321.691437,521.474854
	C319.987854,518.515015 317.949860,516.050415 314.654694,515.719482
	C309.585388,515.210449 304.593781,513.831726 299.332275,514.792480
	C296.175873,515.368896 292.619720,515.354980 289.552307,514.498901
	C282.345764,512.487610 276.727020,515.499817 271.127228,519.160156
	C270.988129,519.251038 270.751862,519.352722 270.744110,519.462341
	C270.307983,525.631958 264.148712,526.302795 260.857788,529.721619
	C252.887756,538.001465 252.571228,547.806946 259.997223,556.543335
	C269.646057,567.894897 282.336029,574.485352 295.909943,579.711792
	C298.912964,580.868042 302.063507,581.136719 305.257629,580.635742
	C307.714813,580.250305 309.833588,580.789368 310.002991,583.602966
	C310.173553,586.436401 307.901672,587.096252 305.602051,587.255981
	C298.986115,587.715332 292.513306,586.570679 286.747375,583.521912
	C278.380280,579.097839 269.703949,574.800598 262.442444,568.876648
	C255.644836,563.331177 249.331360,556.441406 248.682465,546.626282
	C248.558212,544.746643 248.164215,543.249939 245.894272,543.379150
	C229.936523,544.287781 213.831604,544.865051 199.451843,552.972534
	C192.258514,557.028259 185.156448,561.257385 179.260712,567.417786
	C174.175858,572.730896 166.883514,575.128113 160.556534,578.785156
	C158.196686,580.149170 155.810013,578.870911 153.552032,577.512695
	C136.991760,567.551697 122.438957,554.900391 107.149879,543.225098
	C98.169952,536.367798 88.658119,530.208252 79.411247,523.698364
	C76.963974,521.975464 74.562401,520.179321 72.224915,518.310303
	C64.104538,511.817627 54.865627,512.787354 45.584347,514.342468
	C43.071552,514.763489 43.412449,516.804688 43.770950,518.720764
	C45.560658,528.286438 49.903030,536.401367 56.260628,543.855042
	C67.059135,556.515442 77.290634,569.691833 90.192810,580.337830
	C100.071770,588.489319 110.307716,596.208801 120.414032,604.083069
	C121.454132,604.893433 122.724350,605.385437 123.432381,606.617493
	C124.060387,607.710266 124.293991,608.786987 123.610641,609.909302
	C122.833107,611.186340 121.626389,611.841797 120.221008,611.359924
	C118.826874,610.881897 117.426445,610.211426 116.255089,609.325989
	C97.116524,594.859070 77.875778,580.413025 62.657818,561.646790
	C56.595505,554.170959 49.805138,547.249329 44.569622,539.090942
	C40.249443,532.358826 37.957100,524.956848 36.956539,517.113220
	C36.373779,512.544800 38.574837,508.456848 42.939106,508.176453
	C50.570282,507.686188 58.042068,504.710022 66.015717,507.779846
	C72.119362,510.129761 77.004112,513.918030 82.093025,517.622742
	C96.888344,528.393799 112.887894,537.624329 126.366554,550.049683
	C135.386932,558.365112 146.326935,563.603516 155.818375,571.027222
	C157.855896,572.620850 159.249374,571.909241 161.177521,570.976807
	C171.179535,566.140076 178.861526,558.044922 188.082184,552.073792
	C202.661072,542.632812 218.452515,538.024048 235.659943,537.686951
	C237.992020,537.641296 240.336578,537.724731 242.653519,537.511414
	C249.061218,536.921143 249.056641,536.871460 251.434860,530.198364
	C248.362976,529.199463 246.401352,526.860352 244.581497,524.253845
	C243.163269,522.222656 241.479889,520.322998 239.665802,518.631470
	C233.719452,513.086792 233.822205,509.539276 240.972946,505.063934
	C245.634201,502.146667 248.421967,498.244202 250.465714,493.296051
	C253.959686,484.836761 258.261444,476.763855 263.389343,469.152802
	C264.735596,467.154663 266.238037,464.755890 268.863892,466.485596
	C271.645966,468.318146 270.244324,470.938965 268.762146,473.056213
	C262.135223,482.522888 257.806885,493.152191 252.834305,504.109985
	C257.729584,506.716309 261.263611,510.893799 265.183197,515.247559
	C271.674683,510.236572 278.605774,506.542725 287.414917,507.839264
	C286.442322,498.673584 282.747040,490.597504 280.420654,482.176300
	C274.314087,460.071350 267.081512,438.192474 264.965607,415.233826
	C264.057922,405.384827 263.360168,395.255585 266.899200,385.557709
	C270.424408,375.897644 276.806763,372.083099 286.927521,372.834198
	C303.095734,374.033997 313.208862,382.397034 318.314606,397.635803
	C321.174896,406.172668 322.455475,414.984222 323.841309,424.587006
	C326.783936,422.936096 329.196625,421.602264 331.589569,420.233948
	C333.651306,419.054932 335.807892,418.195282 338.227112,418.412476
	C340.275055,418.596313 341.796539,419.720093 341.984802,421.779358
	C342.161835,423.716309 340.748444,424.984589 338.948151,425.113770
	C333.770660,425.485229 330.348724,429.273834 326.089325,431.413696
	C323.734650,432.596680 324.289429,434.781616 324.529816,436.706879
	C325.191803,442.008392 325.392609,447.323059 325.308685,452.656708
	C325.274811,454.808472 324.855743,456.908447 322.265900,456.990540
	C319.685730,457.072296 318.984741,455.007874 318.946411,452.863525
	C318.756073,442.212036 317.883972,431.611389 316.686584,421.033844
	C315.442749,410.045471 312.843353,399.506134 307.266235,389.770874
	C301.975494,380.535522 284.958527,377.705475 278.743317,380.463745
	C275.565369,381.874054 274.216919,384.686096 273.161163,387.747589
	C269.100220,399.523804 270.643707,411.394043 272.653809,423.234528
	C276.975494,448.691742 284.600128,473.290863 292.379639,497.835999
	C293.473022,501.285706 292.911926,505.170990 295.412231,508.608612
	C304.106934,506.796234 312.711945,508.462097 321.563110,510.635956
	C323.101959,505.158508 322.793060,499.688538 322.461487,494.310211
	C321.992004,486.694519 321.091980,479.101929 320.231964,471.515839
	C319.971771,469.220673 320.268738,467.324829 322.766998,466.949646
	C325.213074,466.582275 326.475555,468.423065 326.794464,470.511200
	C327.194427,473.130219 327.098755,475.821899 327.285187,478.477417
	C327.459503,480.960999 327.722992,483.438354 328.037018,486.381409
M327.622406,517.730896
	C333.162170,529.282593 336.396912,541.322998 335.432251,554.269531
	C335.285767,556.235413 336.592010,557.274231 338.177490,558.031067
	C344.622925,561.107849 354.197296,557.234985 356.023102,550.236633
	C358.526184,540.642334 355.979279,531.485229 352.229401,522.616333
	C349.818451,516.914185 343.936401,517.173035 339.379272,515.162537
	C338.315033,514.693054 337.172272,514.388184 336.140594,513.860901
	C332.141479,511.816986 329.462067,513.032288 327.622406,517.730896
M245.017563,510.257233
	C243.873398,511.137207 241.901993,512.131897 243.827682,513.624268
	C248.290115,517.082520 250.301636,522.815674 255.480713,525.908447
	C256.868103,523.573730 260.737152,522.912476 259.669250,519.216248
	C258.469330,515.063049 250.231064,509.774902 245.017563,510.257233
z"/>
<path fill="#000000" opacity="1.000000" stroke="none" 
	d="
M509.300110,155.697983 
	C516.370605,160.596085 521.741333,167.409378 530.304077,169.458160 
	C531.969482,169.856659 533.046204,171.506134 532.392822,173.435532 
	C531.716309,175.433197 529.917847,175.558746 528.229492,175.231857 
	C523.740234,174.362595 519.395874,172.665024 516.103821,169.625320 
	C504.493958,158.905289 491.591187,149.790237 479.364075,139.853546 
	C468.515289,131.037033 456.678864,123.340202 441.350403,124.928688 
	C434.522980,125.636208 432.209717,126.923965 429.911377,133.503006 
	C429.437958,134.858231 428.742279,135.916351 427.240143,136.139908 
	C424.447449,136.555542 423.687256,134.186005 422.356262,132.411987 
	C415.796875,133.842834 411.514893,137.991241 407.774048,143.419601 
	C393.792480,163.708344 380.803375,184.632446 367.679169,205.467422 
	C363.906586,211.456436 359.539734,217.336395 359.133972,224.899750 
	C359.035339,226.738403 357.991852,228.179932 356.008820,228.137558 
	C353.419830,228.082214 353.276215,226.035400 352.691315,223.990494 
	C348.057526,207.789474 353.002289,192.261993 355.620331,176.524261 
	C359.210602,154.942490 366.784180,134.704651 376.864227,115.509102 
	C384.717651,100.553719 395.282410,87.419350 408.635529,76.760857 
	C412.497345,73.678337 416.867188,72.563927 421.703522,72.916107 
	C423.964020,73.080727 425.686310,74.050591 425.647369,76.509811 
	C425.605255,79.166336 423.713715,79.767075 421.443878,79.451149 
	C417.244507,78.866692 414.102753,80.865952 411.083588,83.414772 
	C396.700897,95.556877 386.380890,110.516487 378.480743,127.593651 
	C369.312286,147.412491 363.909790,168.230148 359.540161,189.436356 
	C359.309967,190.553391 359.323486,191.720657 359.444366,192.899490 
	C362.283722,181.311615 364.817047,169.689560 368.730255,158.389023 
	C375.132324,139.901260 383.495972,122.808212 398.957886,109.984818 
	C404.331085,105.528496 409.256836,100.532341 414.381897,95.777260 
	C415.961029,94.312157 417.623108,93.455925 419.763245,94.707542 
	C421.730438,95.858040 422.401825,97.607605 422.269623,99.764427 
	C422.151794,101.686806 421.125092,103.325760 419.224915,102.893303 
	C416.313354,102.230690 414.771057,103.962158 413.259521,105.606178 
	C406.063110,113.433327 397.383118,119.669220 390.748596,128.208298 
	C383.492493,137.547333 380.035217,148.440811 375.846588,159.026581 
	C371.513947,169.976349 368.483917,181.410583 366.474274,194.496979 
	C372.045593,185.913757 377.217010,178.528748 381.777008,170.783737 
	C388.455597,159.440277 396.512695,149.033432 403.521484,137.918793 
	C405.728973,134.418106 408.809570,131.522903 412.380615,129.224472 
	C415.758911,127.050079 419.124115,125.444908 422.874664,128.014038 
	C433.309753,115.204285 446.346069,116.984802 459.671906,120.577034 
	C467.902435,122.795738 475.082947,127.591698 481.075409,133.056091 
	C489.958527,141.156464 501.053101,146.362503 509.300110,155.697983 
z"/>
<path fill="#000000" opacity="1.000000" stroke="none" 
	d="
M632.512573,115.503571 
	C657.771057,132.814117 682.266968,150.595657 708.059387,166.512589 
	C723.486938,176.033264 737.203674,188.064301 751.847656,198.753128 
	C752.643066,199.333725 753.490601,199.842804 754.205322,200.313644 
	C754.717346,200.159500 755.109253,200.156326 755.325500,199.959824 
	C762.550049,193.395569 766.643005,193.889511 770.970642,202.716354 
	C776.350769,213.690048 777.707153,224.954132 771.094482,236.107849 
	C770.499878,237.110794 770.012207,238.183548 769.355774,239.142349 
	C765.743958,244.417587 764.277283,249.386749 768.439392,255.511566 
	C773.081970,262.343445 771.951416,270.042267 769.456787,277.606018 
	C767.062073,284.866669 763.703979,291.787720 762.048462,299.315826 
	C761.395935,302.282867 759.274048,304.588135 757.350647,306.899750 
	C756.106934,308.394470 754.736328,309.726135 752.725708,308.242157 
	C750.934631,306.920135 750.880737,304.875793 751.967651,303.306610 
	C758.342957,294.102722 759.780273,282.972168 763.950806,272.910583 
	C766.738525,266.185059 764.590271,259.729034 760.342041,254.158356 
	C757.905518,250.963364 757.809509,248.155640 759.299805,244.479080 
	C762.172241,237.393066 767.483643,231.430710 768.806580,223.666107 
	C770.015503,216.570755 767.332764,210.312073 764.231873,204.279877 
	C762.858826,201.608871 760.525879,202.729507 759.644226,204.773026 
	C757.416138,209.937378 754.342896,208.267075 751.311462,206.060593 
	C742.296204,199.498825 733.289368,192.919510 724.437927,186.139954 
	C712.530640,177.019760 700.375854,168.260391 687.208740,161.056992 
	C680.140564,157.190170 673.869568,152.278412 667.521912,147.445435 
	C654.005493,137.154221 638.492004,129.637573 625.903931,118.134102 
	C614.633850,107.835091 601.233459,100.567307 589.342773,91.177269 
	C580.279663,84.020096 573.060852,74.950111 564.190491,67.633827 
	C554.562622,59.692749 545.138672,51.454597 535.061646,44.121140 
	C523.758301,35.895172 506.527069,34.277489 496.526367,46.191772 
	C494.621002,48.461712 491.799774,49.828671 490.105347,52.426422 
	C488.870361,54.319748 486.943665,55.055809 484.985901,53.447048 
	C483.195709,51.975990 483.612671,50.078529 484.977325,48.585793 
	C495.282959,37.312855 505.351624,28.498432 522.973816,32.042587 
	C534.135071,34.287334 541.882202,41.294872 550.262146,47.788269 
	C565.943665,59.939388 579.459412,74.543854 594.781433,87.066681 
	C603.009094,93.791206 612.169739,99.363327 620.754700,105.666252 
	C624.769897,108.614220 628.418274,112.061890 632.512573,115.503571 
z"/>
<path fill="#000000" opacity="1.000000" stroke="none" 
	d="
M311.979736,960.400024 
	C288.199799,960.747803 265.354828,957.629211 243.012955,951.188110 
	C234.805038,948.821716 227.703247,943.901062 220.567978,939.336121 
	C213.840607,935.032227 206.626221,931.447876 200.469254,926.291077 
	C197.609467,923.895935 195.711288,924.550903 192.732300,926.671265 
	C179.043503,936.414673 167.796570,949.237061 153.102844,957.704651 
	C146.336273,961.604065 139.599533,963.948486 131.766251,961.250610 
	C127.536705,959.794006 125.262428,957.264160 125.831985,952.739319 
	C126.776436,945.236084 128.265533,937.990662 134.337830,932.544922 
	C137.549789,929.664429 140.328705,926.302307 143.318085,923.171936 
	C144.711456,921.712830 146.372803,920.870667 148.147095,922.323608 
	C149.905533,923.763550 149.609695,925.716980 148.299530,927.218872 
	C145.894562,929.975769 143.359802,932.639893 140.689972,935.140625 
	C136.091782,939.447510 133.960251,944.853516 132.799683,950.893982 
	C132.292984,953.531128 133.263214,954.536255 135.522110,955.220459 
	C140.096176,956.605896 144.131577,955.020630 147.918365,952.853271 
	C158.080490,947.036865 167.222244,939.868408 175.642227,931.716797 
	C178.368591,929.077454 181.670471,927.025330 184.749695,924.759766 
	C187.563782,922.689148 190.152634,920.605225 191.876236,917.306519 
	C193.849243,913.530457 198.228745,913.787170 201.815552,913.161377 
	C203.027924,912.949890 204.555588,914.829956 203.988693,915.965942 
	C201.572998,920.806824 205.665375,922.364868 208.230057,924.021240 
	C217.037521,929.709473 226.076340,935.045044 235.100861,940.390320 
	C247.160172,947.533264 260.964539,948.821716 274.282349,951.432007 
	C287.510834,954.024841 301.094269,953.676819 314.524414,954.509277 
	C318.446686,954.752380 322.924255,955.169983 325.871033,951.126770 
	C326.615692,950.104980 327.935547,950.125916 329.100983,950.609924 
	C330.937317,951.372498 331.146790,952.930969 331.263672,954.708008 
	C332.132385,967.916748 335.534882,980.566528 339.950500,992.972290 
	C340.594238,994.780884 340.913513,997.293091 343.340820,997.434509 
	C345.917114,997.584595 347.322052,995.456604 348.726440,993.528137 
	C352.490936,988.358887 353.286438,982.485840 352.662415,976.393188 
	C351.698120,966.978333 350.470612,957.590332 349.346771,948.191956 
	C349.248138,947.367126 349.007660,946.552551 348.976654,945.727783 
	C348.896515,943.595825 349.257599,941.433716 351.792175,941.189209 
	C354.288116,940.948547 354.902557,942.856995 355.392090,945.043945 
	C357.578857,954.814148 357.632263,964.840698 359.106537,974.701599 
	C360.013855,980.770630 359.718109,987.031860 356.729034,992.755005 
	C354.799896,996.448853 352.933533,1000.171021 349.196686,1002.497681 
	C343.413605,1006.098450 338.794373,1005.056458 335.477905,999.153381 
	C333.183411,995.069336 331.695129,990.642639 330.631500,986.090820 
	C328.892090,978.646851 327.188293,971.194031 325.551483,963.726990 
	C325.049896,961.438721 323.963440,960.219849 321.474091,960.324341 
	C318.479095,960.450195 315.475983,960.383484 311.979736,960.400024 
z"/>
<path fill="#000000" opacity="1.000000" stroke="none" 
	d="
M265.567871,679.604980 
	C260.443726,680.749573 255.771164,681.855103 251.436584,684.151367 
	C245.278610,687.413696 240.396942,685.642456 235.249451,680.803406 
	C225.414276,671.557434 219.745529,659.579163 212.505814,648.612122 
	C204.319427,636.210815 198.987747,622.326721 191.827347,609.393005 
	C189.379166,604.970886 190.486343,602.547241 195.485992,599.693176 
	C210.701294,591.007568 227.117889,586.053040 244.430634,583.557373 
	C258.248535,581.565552 271.191071,584.240479 283.829285,589.459656 
	C286.191498,590.435181 289.776520,591.189453 288.309021,594.675781 
	C286.781281,598.305237 283.497467,596.585266 280.949158,595.444214 
	C271.722412,591.312988 262.047058,588.743103 251.985641,589.424622 
	C233.862808,590.652283 216.742630,595.800659 200.673630,604.352966 
	C198.240509,605.647888 197.920609,607.139160 199.170609,609.614685 
	C208.026230,627.152161 217.125168,644.527771 228.243927,660.796509 
	C232.396973,666.873169 237.475983,672.168640 241.691772,678.155273 
	C242.998077,680.010254 244.372757,680.217102 246.356400,679.230469 
	C254.181488,675.338379 262.364288,672.926636 271.204132,672.468262 
	C277.162170,672.159424 278.359406,670.498535 278.628235,664.240723 
	C279.398956,646.300537 282.197998,628.555603 283.653656,610.683289 
	C283.852234,608.244812 284.615784,606.124939 287.303833,606.294556 
	C290.193054,606.476868 290.264374,608.848328 290.018097,611.192749 
	C288.473358,625.896851 286.838409,640.593384 285.511261,655.317505 
	C284.930145,661.764465 284.998138,668.266174 283.174805,674.560364 
	C282.151428,678.093079 280.538055,680.041870 276.316711,678.621277 
	C272.916595,677.477051 269.448364,679.369629 265.567871,679.604980 
z"/>
<path fill="#000000" opacity="1.000000" stroke="none" 
	d="
M306.234131,858.010742 
	C308.665344,870.539795 308.561646,882.897522 310.115326,895.082336 
	C310.415649,897.438049 310.761322,899.530762 312.601196,901.366943 
	C315.202637,903.963135 314.070251,906.246277 311.652405,908.574158 
	C304.493652,915.466370 295.632721,917.708191 286.149445,918.224182 
	C279.171814,918.603882 272.200989,918.214111 265.264526,917.278320 
	C261.656494,916.791626 258.362946,915.070923 255.900772,912.847961 
	C249.062180,906.673889 240.435150,905.515137 232.151337,903.402954 
	C226.423172,901.942505 221.597534,898.594299 216.185928,896.487366 
	C213.677078,895.510742 214.223129,893.081177 215.300461,890.896912 
	C221.494827,878.337769 228.711212,866.452026 238.312119,856.169373 
	C246.099411,847.829041 252.308716,838.453491 257.345245,828.246460 
	C260.059784,822.745117 264.967316,821.766907 270.841125,823.300842 
	C278.764099,825.369995 286.253754,829.356689 294.871399,828.836243 
	C300.384521,828.503357 302.426880,831.429504 302.426636,837.035828 
	C302.426361,844.069336 305.196167,850.677185 306.234131,858.010742 
M226.287949,885.641663 
	C222.295364,891.797729 222.287399,891.815002 228.718140,894.774292 
	C230.371246,895.535034 232.048065,896.299683 233.788651,896.805725 
	C243.244217,899.554871 252.463303,902.038696 261.045898,907.858826 
	C271.162476,914.719299 283.421448,912.481445 294.955536,910.192871 
	C299.236908,909.343323 303.274628,907.837585 305.942963,903.816101 
	C304.919586,901.788330 303.776154,899.859314 303.640503,897.407593 
	C302.640808,879.338196 300.347809,861.449585 296.727295,843.689331 
	C295.579407,838.058350 294.628052,833.883545 287.636597,835.145813 
	C286.906494,835.277649 286.055389,834.713379 285.255615,834.489136 
	C278.460358,832.583801 271.663940,830.682373 264.730194,828.741272 
	C264.164093,829.756836 263.676483,830.608521 263.210266,831.471741 
	C258.324127,840.518250 253.141907,849.181702 246.314758,857.150879 
	C238.984390,865.707397 230.623398,873.927979 226.287949,885.641663 
z"/>
<path fill="#000000" opacity="1.000000" stroke="none" 
	d="
M324.044037,823.967224 
	C323.769867,822.464050 323.529785,820.934204 324.873627,819.788696 
	C330.324890,815.142029 334.374268,809.163696 339.556458,804.290039 
	C342.802032,801.237671 346.345825,802.505798 349.550171,804.812866 
	C356.304260,809.675598 362.663757,815.077759 369.892334,819.291321 
	C382.113617,826.415039 394.134674,833.832581 405.394806,842.465759 
	C408.457489,844.813843 410.754517,848.553101 415.752930,848.339050 
	C418.165009,848.235840 418.676788,852.522827 416.292236,854.240173 
	C412.206665,857.182373 408.734375,860.686462 403.628815,862.640015 
	C398.802856,864.486572 395.007416,869.211365 390.974915,872.906189 
	C383.564087,879.696655 375.741852,885.676208 365.816437,888.420593 
	C359.610138,890.136658 354.273834,894.246704 347.443359,894.504578 
	C340.978333,894.748596 339.258789,894.111572 336.730286,888.087097 
	C335.365845,884.836121 334.928467,881.368042 334.254364,877.941101 
	C330.899689,860.886597 324.907379,844.676697 318.256805,828.687317 
	C317.418915,826.672852 316.199158,824.619385 318.211090,822.711365 
	C320.194397,820.830627 321.854950,822.124329 323.743652,824.184143 
	C331.468323,843.471313 338.515198,862.248108 341.946625,882.202515 
	C342.962799,888.111694 345.585846,889.050537 351.842163,887.033997 
	C356.587860,885.504395 360.847046,882.782227 365.716370,881.464905 
	C373.120758,879.461792 379.077820,874.758240 384.650238,869.848206 
	C390.096405,865.049438 395.458740,860.148682 401.200562,855.307861 
	C398.560181,851.570312 394.856903,849.076050 391.083221,846.681519 
	C389.346466,845.579529 387.059906,844.246887 388.233063,842.126709 
	C390.174316,838.618469 387.760376,837.716736 385.683624,836.454834 
	C378.149597,831.876831 370.456940,827.546326 363.067871,822.747131 
	C356.692749,818.606628 350.649292,813.955505 344.321289,809.431519 
	C340.701599,813.005554 337.003448,815.912231 334.468750,820.219666 
	C332.304657,823.897278 328.865875,826.491638 324.044037,823.967224 
z"/>
<path fill="#000000" opacity="1.000000" stroke="none" 
	d="
M387.948792,930.932922 
	C407.389191,919.255798 425.993286,907.050964 442.209473,891.470703 
	C442.265930,889.252625 438.731049,886.241455 442.449341,885.118774 
	C445.493958,884.199402 450.203461,884.098389 452.010254,886.856628 
	C456.772919,894.127502 464.633820,897.400391 470.712646,902.896912 
	C474.156891,906.011108 477.762604,909.200439 481.835968,911.314880 
	C491.838715,916.507141 501.840485,922.449585 513.954956,917.534546 
	C518.212219,915.807312 519.974609,913.938843 519.135681,908.638611 
	C516.345947,891.012085 505.284241,879.775269 491.506775,870.298462 
	C488.517120,868.242004 485.470459,866.460938 483.555054,862.989685 
	C482.075745,860.308716 479.446136,858.154907 476.180847,857.439636 
	C473.779510,856.913696 472.567688,855.561035 473.194275,853.201721 
	C473.964752,850.300720 475.268524,847.573853 477.221527,845.245789 
	C478.107605,844.189392 479.279144,843.427124 480.737274,844.069153 
	C482.238464,844.730042 483.343140,845.985657 482.789856,847.614380 
	C481.356140,851.834900 483.920929,854.151978 486.606659,856.515442 
	C494.206238,863.202759 503.340332,868.096191 509.762482,876.150452 
	C517.211487,885.492676 524.093079,894.909546 525.722412,907.499023 
	C527.047241,917.735718 525.460388,922.820618 509.983093,925.134766 
	C497.428589,927.011963 486.069580,923.131897 476.025299,915.279785 
	C467.896820,908.925232 459.532196,902.873413 451.367340,896.564392 
	C449.265472,894.940308 447.889343,894.934509 445.890747,896.849548 
	C430.181976,911.901855 412.251251,923.948120 393.671967,935.101501 
	C386.514038,939.398499 378.765686,942.481995 371.284760,946.114868 
	C369.435272,947.013062 367.383453,947.937073 366.135529,945.405884 
	C364.994324,943.091003 366.430817,941.605225 368.389069,940.626038 
	C374.787872,937.426392 381.211487,934.276367 387.948792,930.932922 
z"/>
<path fill="#000000" opacity="1.000000" stroke="none" 
	d="
M440.043640,793.052856 
	C442.462158,779.008728 440.881378,765.447327 439.271637,751.939331 
	C438.681854,746.990112 438.535797,742.010803 438.005035,737.062927 
	C437.222504,729.768188 433.996277,723.840820 430.394348,717.905334 
	C409.506409,725.217773 389.251160,733.566772 368.951202,741.799133 
	C366.451691,742.812805 363.609100,744.520813 362.200409,740.912903 
	C360.933441,737.667786 364.063538,736.727356 366.307678,735.803162 
	C385.222321,728.012878 404.047638,719.990784 423.466980,713.490662 
	C424.863678,713.023254 426.403076,712.621765 427.518768,711.738403 
	C432.025787,708.169739 432.496033,708.724365 435.845215,713.443481 
	C444.431305,725.541626 444.914551,739.557800 446.159973,753.399719 
	C447.408966,767.281494 449.029419,781.227600 446.301941,795.101990 
	C444.449341,804.525940 443.150696,814.198547 437.704498,822.502808 
	C433.783813,828.480896 432.278625,828.473694 427.507843,823.157104 
	C425.972046,821.445679 424.219940,819.622681 422.181763,818.720825 
	C413.612549,814.929382 406.786285,808.562073 399.029724,803.588013 
	C397.647064,802.701416 396.120575,801.964783 394.567017,801.430847 
	C382.127960,797.156128 370.656860,790.723022 358.689056,785.400513 
	C357.790558,785.000916 356.939636,784.415649 356.192871,783.770630 
	C354.778778,782.549072 354.277771,781.014832 355.348114,779.335327 
	C356.436157,777.628052 358.113586,777.331116 359.682526,778.402710 
	C366.910645,783.339417 375.680481,784.976746 383.104370,789.461365 
	C387.123352,791.889160 391.398712,793.746338 395.900330,794.989319 
	C402.561493,796.828674 407.922577,800.648987 412.282166,805.799622 
	C413.847412,807.648987 415.915466,808.106384 417.770050,808.990234 
	C422.877441,811.424133 427.941681,813.847534 432.304565,818.398315 
	C437.207947,810.408508 438.013458,801.761414 440.043640,793.052856 
z"/>
<path fill="#000000" opacity="1.000000" stroke="none" 
	d="
M151.616867,786.522583 
	C149.118454,787.598450 148.331879,788.955505 148.164246,791.585999 
	C147.302139,805.114258 151.759415,816.943298 158.858658,828.079346 
	C159.835373,829.611450 160.340958,831.441528 161.300903,832.986938 
	C168.820236,845.092041 175.508957,857.850586 187.294586,866.659424 
	C189.083771,867.996704 190.316422,869.645813 188.863953,871.713806 
	C187.205780,874.074829 185.063232,873.162842 183.172195,871.807556 
	C177.143997,867.487427 172.419083,861.813232 167.901001,856.088806 
	C155.111908,839.885010 146.314133,821.650696 141.407318,801.571228 
	C140.015121,795.874146 141.820267,790.123108 141.109955,784.356018 
	C140.810196,781.922302 143.034134,779.566223 145.753906,779.185791 
	C155.902512,777.766113 165.549271,774.312500 175.492371,772.064453 
	C183.756226,770.196045 191.812866,767.428711 200.039581,765.372925 
	C206.378113,763.789001 212.249374,761.133362 218.023743,758.254333 
	C221.652908,756.444885 223.068466,757.620422 224.037491,761.191833 
	C227.170914,772.740356 228.986984,784.719666 236.148346,794.921570 
	C238.204483,797.850708 237.669098,802.189392 239.916901,805.432251 
	C240.700104,806.562134 239.553101,807.978394 238.330307,808.717773 
	C236.950516,809.552185 235.640106,808.992126 234.719208,807.975891 
	C231.043945,803.920044 226.951721,800.058105 225.394073,794.606201 
	C223.293427,787.253845 221.520538,779.807922 219.595093,772.405212 
	C219.104706,770.519897 218.569473,768.646301 217.853394,766.031799 
	C208.582672,770.364990 199.205551,772.403137 189.935822,774.786377 
	C180.120193,777.309998 170.667099,781.201599 160.506912,782.449768 
	C157.319336,782.841370 154.673370,784.795715 151.616867,786.522583 
z"/>
<path fill="#000000" opacity="1.000000" stroke="none" 
	d="
M439.541809,272.477417 
	C451.761597,271.267883 463.552002,273.219452 475.342987,272.716919 
	C485.199158,272.296844 494.754944,275.848633 504.648743,274.709106 
	C506.073669,274.545013 507.263702,275.210083 507.734955,276.705505 
	C508.210754,278.215118 507.564789,279.501617 506.308746,280.081207 
	C504.024353,281.135254 504.238068,282.768005 504.165710,284.914276 
	C503.467010,305.635986 497.431427,323.539612 477.320435,333.572388 
	C463.721069,340.356750 441.503082,338.212128 429.830322,321.127228 
	C420.465790,307.420807 416.263611,293.221069 420.642822,276.940369 
	C422.355347,270.573578 426.817719,268.397980 432.867523,270.783203 
	C434.856476,271.567352 437.033691,271.873962 439.541809,272.477417 
M437.993439,320.522186 
	C446.464020,330.593323 461.965973,333.915894 474.324646,327.623383 
	C492.451996,318.393677 497.653137,302.893066 497.394318,281.731628 
	C481.403229,277.867401 465.025116,279.496033 448.832947,278.683777 
	C443.779724,278.430328 438.630432,279.354858 433.564941,278.061096 
	C431.695282,277.583557 429.935608,276.413910 427.808319,277.040955 
	C425.578522,282.936005 424.968414,288.783875 425.759460,295.121155 
	C426.974182,304.852173 431.809204,312.558197 437.993439,320.522186 
z"/>
<path fill="#000000" opacity="1.000000" stroke="none" 
	d="
M305.757294,705.202759 
	C321.698669,718.562927 326.223938,735.730225 322.154510,754.890381 
	C319.224335,768.686768 310.737274,779.539062 298.598419,787.052368 
	C295.237000,789.132812 291.933990,791.382019 288.103943,792.759277 
	C274.411804,797.682556 263.369934,793.469177 255.565643,781.260376 
	C245.031494,764.780945 245.070282,747.821960 251.601120,730.181091 
	C252.402863,728.015381 253.330780,725.857056 256.097260,726.690369 
	C258.926788,727.542725 258.478394,729.969360 257.812897,732.106567 
	C256.031097,737.828979 254.356995,743.552551 253.747360,749.562378 
	C252.414902,762.697754 257.257355,773.671631 265.717407,783.204102 
	C271.206268,789.388794 278.372833,789.328430 285.421997,786.561035 
	C300.387115,780.685852 311.335938,770.097046 315.522736,754.682129 
	C319.369110,740.520752 317.104584,726.547974 306.497711,715.125000 
	C300.758820,708.944519 294.667358,703.409851 285.436523,703.176575 
	C278.831451,703.009583 273.474426,705.359375 269.089966,710.143188 
	C267.733795,711.622925 266.465546,713.713928 264.204590,712.107178 
	C261.701721,710.328369 262.615295,707.997864 264.116455,705.978149 
	C268.612823,699.928345 275.082214,697.359924 282.213074,696.782288 
	C291.045105,696.066772 298.990204,698.665100 305.757294,705.202759 
z"/>
<path fill="#000000" opacity="1.000000" stroke="none" 
	d="
M570.311829,135.592712 
	C584.842346,142.670624 599.371399,148.980713 613.167175,156.615646 
	C630.680847,166.308182 649.840393,172.348892 667.284424,182.085724 
	C668.444946,182.733459 669.711487,183.256470 670.726196,184.085388 
	C672.432068,185.478958 674.235535,187.195282 672.681641,189.562805 
	C671.027832,192.082550 669.126038,190.741013 667.135498,189.517090 
	C658.463318,184.184631 649.086243,180.241577 639.679016,176.490097 
	C622.328430,169.570984 606.451538,159.695343 589.506836,151.994385 
	C567.854736,142.154007 546.735168,131.233719 525.710754,120.164566 
	C508.783539,111.252579 493.476410,99.642113 477.427063,89.265793 
	C474.516785,87.384254 472.070587,84.824936 468.414673,84.146011 
	C466.654297,83.819092 465.546692,82.345688 465.853485,80.413765 
	C466.171814,78.409500 467.741974,77.859978 469.553528,77.786163 
	C473.405121,77.629234 475.958160,80.218842 478.831879,82.145294 
	C490.983673,90.291519 502.863861,98.887459 515.365967,106.455719 
	C533.001343,117.131432 551.434692,126.406960 570.311829,135.592712 
z"/>
<path fill="#000000" opacity="1.000000" stroke="none" 
	d="
M516.777832,132.210495 
	C533.786438,142.108932 551.849792,149.136353 568.609070,158.686905 
	C573.342529,161.384338 577.532898,165.055145 581.892578,168.384003 
	C590.391235,174.873291 600.471008,177.987747 610.265137,181.658340 
	C615.451965,183.602234 620.194031,186.332336 625.007568,188.955719 
	C626.279785,189.649109 627.392395,190.768250 628.337219,191.894211 
	C629.402161,193.163162 629.463928,194.679672 628.249939,195.970932 
	C627.067261,197.228912 625.743530,197.399094 624.248962,196.350204 
	C615.275024,190.052277 604.982483,186.648148 594.796692,183.025360 
	C588.434509,180.762543 582.502502,177.385315 577.589355,173.048767 
	C565.319763,162.219177 550.192810,156.798935 535.984985,149.611450 
	C523.214294,143.151001 510.880310,135.871002 498.221954,129.228836 
	C476.212646,117.679970 455.310608,103.472916 430.096252,99.113396 
	C427.798615,98.716141 425.598389,97.664383 426.448120,94.875999 
	C427.188599,92.446167 429.505157,91.928856 431.830566,92.550560 
	C445.495270,96.203773 459.006561,100.063461 471.381653,107.402519 
	C483.523773,114.603409 496.602417,120.152794 508.635498,127.610962 
	C511.178528,129.187134 513.848511,130.558533 516.777832,132.210495 
z"/>
<path fill="#000000" opacity="1.000000" stroke="none" 
	d="
M137.973022,746.031738 
	C134.118347,746.081787 133.404266,743.266296 132.982056,740.372070 
	C132.174103,734.833618 132.069824,729.250854 128.601303,724.280762 
	C126.737076,721.609497 128.268692,717.957825 128.994736,715.026062 
	C132.025269,702.788879 133.937988,690.276733 137.977020,678.286011 
	C141.818573,666.881470 147.297836,656.209534 152.936447,645.656067 
	C157.872849,636.416870 162.711243,636.302307 169.889664,643.920532 
	C181.167969,655.889832 191.808334,668.666687 204.697083,678.831787 
	C213.684280,685.919678 219.064606,695.643372 226.814957,703.498779 
	C228.270264,704.973755 228.542343,706.843933 226.885101,708.370239 
	C225.161255,709.958069 223.593353,708.993774 222.028061,707.765015 
	C216.570084,703.480469 213.959244,696.863586 208.968460,692.124512 
	C205.266373,688.609192 201.412842,685.213440 197.675323,681.767090 
	C185.917694,670.925293 175.505310,658.830261 164.345245,647.442688 
	C163.522049,646.602722 162.720139,645.764404 161.447815,645.669434 
	C161.151321,645.810669 160.718781,645.875122 160.585037,646.109802 
	C152.841827,659.697937 145.349075,673.391479 142.012329,688.901489 
	C141.280746,692.302063 140.543365,695.748108 139.317627,698.987366 
	C134.784195,710.968018 136.375854,723.006348 138.728333,735.047424 
	C139.312256,738.036194 139.369965,740.984863 139.024185,744.603210 
	C138.497665,745.496216 138.235336,745.763977 137.973022,746.031738 
z"/>
<path fill="#000000" opacity="1.000000" stroke="none" 
	d="
M408.647644,656.294312 
	C409.711884,657.610413 410.613861,658.589844 411.477509,659.601990 
	C413.546875,662.027344 413.364441,663.848633 410.995941,666.409912 
	C398.701355,679.705078 382.925140,687.517578 366.923401,694.982849 
	C358.318207,698.997437 350.128296,703.752197 341.854218,708.362976 
	C339.734924,709.543945 337.660492,711.165710 336.011658,708.073364 
	C334.533051,705.300293 336.478180,703.677612 338.617035,702.494995 
	C345.746796,698.552856 352.895508,694.642578 360.093628,690.827026 
	C371.687958,684.681458 384.188080,680.181458 394.729675,672.141479 
	C398.402161,669.340515 401.585602,665.898254 405.149902,662.603333 
	C402.442322,659.320374 401.192871,655.716980 399.626221,652.252258 
	C387.961273,626.453979 368.021271,611.022583 340.469940,605.049194 
	C337.771454,604.464111 332.803802,605.284424 333.699585,600.549927 
	C334.508850,596.272766 338.582977,597.816528 341.639526,598.469910 
	C374.386169,605.469360 396.366302,624.980408 408.647644,656.294312 
z"/>
<path fill="#000000" opacity="1.000000" stroke="none" 
	d="
M650.019287,221.946747 
	C664.065552,224.941910 677.727356,227.806976 691.386414,230.685196 
	C692.356873,230.889725 693.335693,231.114746 694.260559,231.463120 
	C696.207520,232.196472 698.228394,233.193420 697.406921,235.707901 
	C696.659851,237.994583 694.633850,238.212463 692.436646,237.749146 
	C683.331299,235.829056 674.254395,233.731461 665.090027,232.143036 
	C646.237488,228.875381 628.415283,222.639053 611.490295,213.862137 
	C596.865173,206.277878 582.896240,197.581284 569.045654,188.639679 
	C555.349976,179.798096 542.050293,170.386017 528.390076,161.507126 
	C526.437988,160.238312 524.398010,159.053406 525.732666,156.507477 
	C527.196533,153.714966 529.819336,154.466827 531.805298,155.787659 
	C538.450928,160.207779 544.828613,165.036514 551.531128,169.364594 
	C570.665222,181.720383 589.196960,195.049957 609.499695,205.532837 
	C622.381104,212.183838 635.681763,217.806061 650.019287,221.946747 
z"/>
<path fill="#000000" opacity="1.000000" stroke="none" 
	d="
M110.642441,795.873108 
	C110.913940,804.289429 116.525917,810.200928 119.728485,816.955383 
	C126.982666,832.254944 133.589630,847.944092 143.270447,862.021912 
	C150.473145,872.496033 158.624527,882.044006 168.325012,890.267578 
	C168.973633,889.911133 169.466705,889.749634 169.814651,889.430115 
	C171.368881,888.002686 173.014893,886.639221 174.973572,888.590942 
	C176.663574,890.275024 176.381851,892.374512 175.024200,894.062317 
	C168.354324,902.354492 161.614853,910.591492 154.820999,918.782532 
	C153.521637,920.349060 151.713013,920.891846 150.011932,919.285767 
	C148.089066,917.470154 149.010071,915.763306 150.375748,914.033997 
	C155.006027,908.170959 159.573029,902.257874 164.836960,895.500305 
	C160.311005,891.252686 155.563644,887.335876 151.451965,882.837952 
	C138.887573,869.093384 129.215485,853.471130 121.838387,836.361755 
	C119.207489,830.259949 115.872787,824.460815 112.836700,818.535156 
	C112.326561,817.539551 111.928780,816.643677 110.526016,816.221375 
	C104.004570,814.257568 100.690399,801.654541 105.179108,796.433228 
	C106.716537,794.644775 108.374474,794.143494 110.642441,795.873108 
z"/>
<path fill="#000000" opacity="1.000000" stroke="none" 
	d="
M98.391983,759.575317 
	C95.722687,748.110840 94.199997,736.868225 94.091980,725.606140 
	C93.914314,707.083435 96.277634,688.762695 102.514992,671.218689 
	C107.582428,656.965332 113.335114,642.955994 118.742287,628.822571 
	C120.120766,625.219482 121.769043,621.779846 124.389725,618.920532 
	C125.617432,617.581055 127.091324,616.045593 129.093384,617.472290 
	C130.932480,618.782898 130.599289,620.674744 129.639175,622.393799 
	C120.097878,639.476685 114.182838,658.125122 107.917885,676.437012 
	C99.580154,700.807312 97.980644,726.158264 103.803261,751.643188 
	C104.870071,756.312500 105.227318,761.146729 105.853722,765.912476 
	C106.112656,767.882507 105.745338,769.714478 103.446358,770.164795 
	C100.969383,770.649963 99.640442,769.083191 99.212807,766.942139 
	C98.759476,764.672607 98.708900,762.322632 98.391983,759.575317 
z"/>
<path fill="#000000" opacity="1.000000" stroke="none" 
	d="
M41.896793,788.818970 
	C58.110641,780.515076 75.167358,775.147888 91.384483,767.802490 
	C93.735077,766.737793 96.543640,765.733704 97.846207,768.866394 
	C99.225365,772.183289 96.113762,773.076965 93.880508,774.034424 
	C77.216484,781.178162 60.026688,787.080627 43.800587,795.258911 
	C42.464207,795.932556 41.078922,796.536682 39.826904,797.344482 
	C36.954937,799.197449 34.184246,801.228210 35.432556,805.318726 
	C36.652313,809.315552 40.017864,810.310669 43.613995,810.696350 
	C50.230610,811.405823 56.586647,809.734924 62.719330,807.707031 
	C71.556931,804.784668 80.661674,802.572815 89.084946,798.451721 
	C89.977432,798.015076 90.969414,797.786865 91.891037,797.403748 
	C94.085251,796.491516 95.936668,796.851135 96.804390,799.173096 
	C97.610680,801.330750 96.244453,802.656738 94.400322,803.442261 
	C90.268463,805.202148 86.211006,807.240112 81.931854,808.529785 
	C72.549606,811.357361 63.410057,815.057434 53.691025,816.712524 
	C48.222057,817.643799 42.719746,817.874329 37.410881,816.024170 
	C32.874546,814.443298 29.666183,811.232483 28.921732,806.394775 
	C28.142393,801.330444 28.204056,796.434265 33.845669,793.499451 
	C36.466225,792.136292 38.664509,789.949158 41.896793,788.818970 
z"/>
<path fill="#000000" opacity="1.000000" stroke="none" 
	d="
M360.493439,249.568832 
	C355.765106,262.125458 358.247681,272.702362 367.444702,281.880707 
	C369.508453,283.940308 373.579224,286.420410 370.190491,289.522858 
	C366.894165,292.540771 364.927856,288.190948 362.678436,286.232544 
	C350.408539,275.550049 348.077118,257.719360 356.311829,242.410767 
	C370.109192,216.760864 385.015900,191.787994 401.769012,167.942963 
	C402.338348,167.132614 402.942261,166.301453 403.691803,165.672821 
	C405.001709,164.574142 406.435577,164.601044 407.776062,165.707214 
	C408.969604,166.692123 409.258972,167.985199 408.485413,169.272095 
	C407.375793,171.117981 406.045166,172.829376 404.860626,174.632156 
	C391.438965,195.058762 378.085571,215.524109 366.888794,237.303436 
	C364.840942,241.286728 362.188385,244.956253 360.493439,249.568832 
z"/>
<path fill="#000000" opacity="1.000000" stroke="none" 
	d="
M695.484497,279.478058 
	C697.919189,281.252136 700.393616,282.438934 701.868164,284.771851 
	C702.754883,286.174683 702.794189,287.629425 701.522400,288.868042 
	C700.438110,289.923920 699.162415,290.177856 697.924866,289.182648 
	C682.499634,276.778290 663.048157,270.951691 647.625488,258.667267 
	C634.871216,248.508286 622.757019,237.546906 610.317810,226.989929 
	C607.914490,224.950317 605.338318,223.111374 602.806274,221.227676 
	C601.030640,219.906769 598.868408,218.538300 600.452759,216.042938 
	C601.961914,213.666046 604.373840,214.598816 606.239868,215.721344 
	C608.798584,217.260498 611.406433,218.875717 613.548462,220.923569 
	C626.317566,233.131226 640.129761,244.105560 653.827942,255.210037 
	C662.305664,262.082489 672.724854,265.648407 681.994019,271.204437 
	C686.416565,273.855377 690.992188,276.245605 695.484497,279.478058 
z"/>
<path fill="#000000" opacity="1.000000" stroke="none" 
	d="
M558.265625,215.641449 
	C565.457703,222.326279 570.122864,229.840652 570.553711,239.656296 
	C570.682129,242.581787 571.893250,245.470169 572.691467,248.352539 
	C573.317749,250.613937 573.563721,252.958771 570.940979,253.831543 
	C567.838867,254.863846 566.829529,252.178497 566.199036,249.997925 
	C565.325500,246.977066 564.903137,243.822647 564.338196,240.716217 
	C560.757568,221.029099 551.622681,217.024567 536.428650,214.455994 
	C518.445801,211.415985 500.328033,221.220078 491.681641,237.506058 
	C490.470856,239.786621 489.284912,242.634415 486.253204,241.088791 
	C483.029510,239.445328 484.387604,236.548584 485.810760,234.174896 
	C494.820160,219.147827 508.099609,209.566483 525.227051,207.118759 
	C536.707520,205.478058 547.918274,209.227036 558.265625,215.641449 
z"/>
<path fill="#000000" opacity="1.000000" stroke="none" 
	d="
M137.795471,746.311523 
	C138.235336,745.763977 138.497665,745.496216 138.971497,745.040955 
	C148.395554,742.586670 157.787308,742.718262 167.185699,742.287720 
	C173.890747,741.980652 180.692108,740.359680 187.122421,738.300537 
	C195.960770,735.470276 204.772385,733.257935 214.423080,733.936951 
	C214.652481,728.122620 217.153809,723.194031 218.722000,717.990112 
	C219.300507,716.070312 220.394714,714.514587 222.600677,714.977234 
	C225.054474,715.491882 225.603394,717.511108 225.066483,719.657715 
	C223.506256,725.895569 220.575226,731.791992 220.995071,738.519836 
	C221.118729,740.501282 219.310913,742.058472 217.182144,741.301758 
	C208.470428,738.204712 200.491791,741.868286 192.419144,743.926086 
	C182.765228,746.386963 173.056091,748.718506 163.211029,749.899353 
	C157.772232,750.551697 152.074432,748.314026 146.513336,750.301392 
	C144.953781,750.858643 143.310562,751.182312 141.752121,751.742249 
	C140.076477,752.344238 138.450012,752.626648 137.188126,751.095032 
	C135.901840,749.533691 136.446732,747.996521 137.795471,746.311523 
z"/>
<path fill="#000000" opacity="1.000000" stroke="none" 
	d="
M333.884705,619.770264 
	C331.387146,638.467957 327.730713,656.529236 324.119080,674.596252 
	C323.698914,676.698242 322.752533,678.692444 322.085724,680.748108 
	C320.612671,685.289368 320.368469,689.275513 324.916107,692.694214 
	C328.515900,695.400269 330.559723,699.623840 332.516724,703.689270 
	C333.416168,705.557739 334.147736,707.623901 331.698242,708.860474 
	C329.730072,709.854187 327.955811,708.910706 327.062836,707.129883 
	C324.249481,701.519653 320.075195,697.270325 315.409668,693.092346 
	C312.087097,690.117065 314.098785,684.956726 315.176788,681.285461 
	C321.615753,659.357178 324.493073,636.781799 328.106079,614.333069 
	C328.369995,612.693115 328.642212,611.034790 329.140167,609.457520 
	C329.704315,607.670776 330.592804,605.831421 332.906464,606.231262 
	C335.186676,606.625305 335.593231,608.512817 335.347900,610.479309 
	C334.977448,613.449097 334.473999,616.402222 333.884705,619.770264 
z"/>
<path fill="#000000" opacity="1.000000" stroke="none" 
	d="
M450.378143,240.511002 
	C449.608276,239.416504 448.833740,238.555511 448.806976,237.671860 
	C448.590454,230.523285 444.798798,225.133301 440.290924,220.121872 
	C436.381195,215.775345 431.714447,212.259979 427.139221,208.661469 
	C422.240479,204.808517 416.652344,203.975204 411.179169,206.628540 
	C400.371033,211.868179 391.148834,219.006851 386.306183,230.550949 
	C385.661835,232.087006 384.737122,233.168076 382.988342,232.973785 
	C381.063538,232.759949 380.146332,231.428711 379.870361,229.607712 
	C379.517883,227.281586 380.503967,225.274841 381.818054,223.580582 
	C388.794617,214.585815 396.437042,206.270233 406.961700,201.302582 
	C416.112305,196.983459 424.580994,198.042465 432.496216,204.575287 
	C439.183350,210.094543 445.871246,215.524307 450.745667,222.857971 
	C453.296661,226.695953 454.905304,230.811508 455.265503,235.358749 
	C455.513031,238.483627 454.831940,241.143372 450.378143,240.511002 
z"/>
<path fill="#000000" opacity="1.000000" stroke="none" 
	d="
M240.631516,813.261963 
	C240.277008,816.062378 238.244476,817.515930 237.011429,819.460510 
	C230.120209,830.327820 221.677628,840.123352 215.042831,851.174561 
	C214.459991,852.145325 213.562943,853.584412 212.729919,853.643066 
	C206.586105,854.075928 204.738373,859.530151 201.291000,863.083008 
	C199.574600,864.851929 198.003601,867.560059 195.201447,865.270691 
	C192.307465,862.906189 194.819794,860.900269 196.274948,858.943909 
	C199.696457,854.343628 204.072067,850.470337 205.365356,844.354980 
	C205.955795,841.563171 208.737732,839.438660 211.065643,837.557434 
	C219.404907,830.818481 226.463409,822.945068 232.582489,814.161682 
	C235.629913,809.787292 237.407471,809.628113 240.631516,813.261963 
z"/>
<path fill="#000000" opacity="1.000000" stroke="none" 
	d="
M438.643311,61.604256 
	C451.346649,51.910454 465.818054,46.164612 479.511505,39.006100 
	C481.482727,37.975613 483.391937,37.472179 484.649078,39.822506 
	C485.909454,42.178818 484.221161,43.804108 482.510834,44.736992 
	C476.970520,47.758858 471.381866,50.730282 465.630920,53.319149 
	C455.543579,57.860092 446.546448,64.148338 437.432190,70.270485 
	C436.192841,71.102966 434.977997,71.932594 434.263763,73.365532 
	C433.176666,75.546402 431.499084,77.094460 429.153015,75.239990 
	C426.967865,73.512764 427.110809,71.118317 428.877441,69.072441 
	C431.519318,66.012894 434.946625,63.914272 438.643311,61.604256 
z"/>
<path fill="#000000" opacity="1.000000" stroke="none" 
	d="
M349.047119,761.081177 
	C350.028046,754.539185 350.686554,748.415344 348.058838,742.537170 
	C347.090118,740.370239 346.307556,738.196045 349.078735,737.115784 
	C351.852173,736.034668 353.309753,738.071533 354.378540,740.323364 
	C356.835510,745.499756 356.617004,751.055176 356.158813,756.478088 
	C355.631287,762.721741 355.070343,769.073547 352.070709,774.791138 
	C351.086853,776.666443 349.943176,779.074768 347.213104,777.662659 
	C344.855255,776.443115 345.116638,774.285583 346.077576,772.031616 
	C347.510468,768.670715 348.570190,765.172485 349.047119,761.081177 
z"/>
<path fill="#ec2d01" opacity="1.000000" stroke="none"
	d="
M390.661316,267.333496 
	C390.004364,265.862091 389.990356,264.689972 390.592896,263.635773 
	C394.454926,256.878784 397.212524,249.518814 401.706543,243.115585 
	C403.100281,241.129776 404.658722,238.447937 407.618591,240.586945 
	C410.272491,242.504807 408.394501,244.527466 407.231232,246.606018 
	C403.672485,252.965073 400.359039,259.460907 396.863159,265.855988 
	C395.510498,268.330414 393.933319,270.706940 390.661316,267.333496 
z"/>
<path fill="#ec2d01" opacity="1.000000" stroke="none"
	d="
M540.996460,272.827667 
	C538.192932,268.049286 537.940613,262.217041 532.693237,259.245880 
	C531.339905,258.479614 531.557861,256.534576 532.761414,255.270218 
	C534.302979,253.650818 536.241272,253.375885 538.259583,254.168030 
	C540.085510,254.884644 540.964966,256.552887 541.780823,258.201141 
	C544.567566,263.831360 546.439270,269.903046 550.403748,274.972443 
	C551.817322,276.779999 551.789246,279.243225 549.475403,280.629791 
	C547.156006,282.019623 545.896179,280.397614 544.787476,278.501984 
	C543.704041,276.649628 542.395508,274.928986 540.996460,272.827667 
z"/>
<path fill="#ec2d01" opacity="1.000000" stroke="none"
	d="
M426.535187,246.095825 
	C423.539032,252.477249 419.543884,257.770996 415.797699,263.220795 
	C414.456268,265.172272 413.082092,267.489410 410.321808,265.497498 
	C408.029175,263.843048 408.982208,261.746124 410.247375,259.800873 
	C413.764893,254.392441 417.488373,249.120697 420.514343,243.391449 
	C421.478485,241.566025 423.000671,239.434341 425.608887,240.620422 
	C427.932709,241.677170 427.560272,243.779205 426.535187,246.095825 
z"/>
<path fill="#ec2d01" opacity="1.000000" stroke="none"
	d="
M519.733276,259.953613
	C519.859802,258.216003 519.785339,256.830902 520.210754,255.621658
	C520.659729,254.345306 521.773010,253.387329 523.263000,253.471695
	C524.983154,253.569077 525.901733,254.688339 526.181458,256.344208
	C527.372986,263.397339 527.696472,270.502625 527.222168,277.628387
	C527.048157,280.242279 525.620911,282.344147 522.764282,281.634735
	C520.322144,281.028290 519.675537,278.930023 520.696106,276.448975
	C522.953918,270.960114 520.937256,265.688995 519.733276,259.953613
z"/>
<path fill="#000000" opacity="1.000000" stroke="none" 
	d="
M621.145569,589.727295 
	C628.647827,598.032227 633.647095,606.908264 631.621704,618.316589 
	C631.478577,619.122681 631.238464,620.166077 631.598145,620.767395 
	C635.039551,626.521606 631.417297,631.045715 628.769775,635.417786 
	C623.349792,644.368286 615.828796,650.419495 605.471497,653.771057 
	C592.037170,658.118347 578.999695,663.726868 565.439880,667.790283 
	C561.943298,668.838013 558.348755,669.614990 554.752380,670.251770 
	C552.793762,670.598511 550.467773,670.620972 549.969666,667.952026 
	C549.476379,665.308838 551.623962,664.409424 553.572998,664.011902 
	C561.587891,662.377014 569.288757,659.736450 576.961670,656.996765 
	C587.768188,653.138184 598.672607,649.512756 609.290894,645.187927 
	C613.736328,643.377258 618.366577,640.840332 619.060181,634.916809 
	C619.181763,633.878174 620.180054,632.908447 620.865784,631.974731 
	C627.171997,623.388794 627.307373,609.704163 621.149597,601.065979 
	C616.288208,594.246399 608.272156,592.091980 597.825073,594.958191 
	C587.463806,597.800781 578.436523,603.744324 568.576965,607.729492 
	C554.827576,613.286865 541.901855,620.505981 528.577698,626.917297 
	C526.524902,627.904968 524.454529,629.042847 523.064758,626.251709 
	C521.735779,623.582397 523.827454,622.090210 525.681763,621.098328 
	C532.725708,617.330505 539.790405,613.577759 547.016846,610.180054 
	C561.170166,603.525513 575.350952,596.914978 589.686646,590.667847 
	C599.802185,586.259644 610.343811,586.842773 621.145569,589.727295 
z"/>
<path fill="#000000" opacity="1.000000" stroke="none" 
	d="
M618.425415,396.581421 
	C626.377075,406.843079 636.497375,414.320190 646.195435,422.083344 
	C657.123596,430.831177 669.971375,436.710175 682.417114,443.038300 
	C690.562805,447.180054 698.946838,450.945953 708.255005,451.894348 
	C710.230347,452.095581 711.967468,453.217804 711.719482,455.399445 
	C711.477722,457.525604 709.617981,458.275696 707.601807,458.197052 
	C701.008423,457.939941 694.862854,455.884491 688.879150,453.306732 
	C672.793030,446.376801 657.291931,438.171692 643.117798,427.995941 
	C625.188904,415.124542 609.842773,399.174103 596.732727,381.516846 
	C586.565247,367.822693 577.602783,353.091858 571.892639,336.767853 
	C570.412354,332.536041 568.101318,328.643829 567.179199,324.174042 
	C566.588989,321.313110 566.896667,318.861145 569.833679,318.148956 
	C572.820801,317.424652 572.798462,320.153046 573.522827,322.243225 
	C578.158081,335.617859 584.113403,348.310608 591.177612,360.673645 
	C598.698486,373.835724 607.804810,385.483826 618.425415,396.581421 
z"/>
</svg>